<?xml version="1.0" standalone="no"?>
 <!DOCTYPE svg PUBLIC "-//W3C//DTD SVG 1.1//EN" 
 "http://www.w3.org/Graphics/SVG/1.1/DTD/svg11.dtd"> 
<svg xmlns="http://www.w3.org/2000/svg" version="1.1" 
    width="29.7002cm" height="21.0007cm" viewBox="0 0 116930 82680 ">
<title>SVG Picture created as SMBeeHive.svg date 2019/05/21 11:35:25 </title>
  <desc>Picture generated by Eeschema-SVG </desc>
<g style="fill:#000000; fill-opacity:1;stroke:#000000; stroke-opacity:1;
stroke-linecap:round; stroke-linejoin:round; "
 transform="translate(0 0) scale(1 1)">
</g>
<g style="fill:#000000; fill-opacity:0.0; 
stroke:#000000; stroke-width:0; stroke-opacity:1; 
stroke-linecap:round; stroke-linejoin:round;">
</g>
<g style="fill:#840000; fill-opacity:0.0; 
stroke:#840000; stroke-width:0; stroke-opacity:1; 
stroke-linecap:round; stroke-linejoin:round;">
</g>
<g style="fill:#840000; fill-opacity:1.0; 
stroke:#840000; stroke-width:60; stroke-opacity:1; 
stroke-linecap:round; stroke-linejoin:round;">
<rect x="69660" y="43950" width="340" height="100" rx="0" />
</g>
<g style="fill:#840000; fill-opacity:0.0; 
stroke:#840000; stroke-width:60; stroke-opacity:1; 
stroke-linecap:round; stroke-linejoin:round;">
<polyline fill="none;"
points="69500,44000
69660,44000
" /> 
<path d="M69500 44000
L68000 44000
" />
<path d="M68890 43870
L68600 43870
" />
<path d="M68750 43870
L68750 43370
L68700 43440
L68650 43490
L68600 43510
" />
</g>
<g style="fill:#008484; fill-opacity:0.0; 
stroke:#008484; stroke-width:60; stroke-opacity:1; 
stroke-linecap:round; stroke-linejoin:round;">
<path d="M70560 42990
L70560 43350
L70540 43420
L70490 43470
L70420 43490
L70370 43490
" />
<path d="M71060 43490
L70780 43490
" />
<path d="M70920 43490
L70920 42990
L70870 43060
L70820 43110
L70780 43130
" />
<path d="M71280 43300
L71660 43300
" />
<path d="M72130 42990
L71890 42990
L71870 43230
L71890 43210
L71940 43180
L72060 43180
L72110 43210
L72130 43230
L72160 43280
L72160 43400
L72130 43440
L72110 43470
L72060 43490
L71940 43490
L71890 43470
L71870 43440
" />
<path d="M70680 43930
L70640 43900
L70570 43900
L70490 43930
L70450 43970
L70420 44020
L70400 44120
L70400 44190
L70420 44280
L70450 44330
L70490 44380
L70570 44400
L70610 44400
L70680 44380
L70710 44350
L70710 44190
L70610 44190
" />
<path d="M70920 44400
L70920 43900
L71210 44400
L71210 43900
" />
<path d="M71450 44400
L71450 43900
L71570 43900
L71640 43930
L71680 43970
L71710 44020
L71730 44120
L71730 44190
L71710 44280
L71680 44330
L71640 44380
L71570 44400
L71450 44400
" />
</g>
<g style="fill:#008484; fill-opacity:0.0; 
stroke:#008484; stroke-width:0; stroke-opacity:1; 
stroke-linecap:round; stroke-linejoin:round;">
</g>
<g style="fill:#840000; fill-opacity:0.0; 
stroke:#840000; stroke-width:0; stroke-opacity:1; 
stroke-linecap:round; stroke-linejoin:round;">
</g>
<g style="fill:#840000; fill-opacity:1.0; 
stroke:#840000; stroke-width:60; stroke-opacity:1; 
stroke-linecap:round; stroke-linejoin:round;">
<rect x="69660" y="41950" width="340" height="100" rx="0" />
</g>
<g style="fill:#840000; fill-opacity:0.0; 
stroke:#840000; stroke-width:60; stroke-opacity:1; 
stroke-linecap:round; stroke-linejoin:round;">
<polyline fill="none;"
points="69500,42000
69660,42000
" /> 
<path d="M69500 42000
L68000 42000
" />
<path d="M68890 41870
L68600 41870
" />
<path d="M68750 41870
L68750 41370
L68700 41440
L68650 41490
L68600 41510
" />
</g>
<g style="fill:#008484; fill-opacity:0.0; 
stroke:#008484; stroke-width:60; stroke-opacity:1; 
stroke-linecap:round; stroke-linejoin:round;">
<path d="M70560 40990
L70560 41350
L70540 41420
L70490 41470
L70420 41490
L70370 41490
" />
<path d="M71060 41490
L70780 41490
" />
<path d="M70920 41490
L70920 40990
L70870 41060
L70820 41110
L70780 41130
" />
<path d="M71280 41300
L71660 41300
" />
<path d="M72110 41160
L72110 41490
" />
<path d="M71990 40970
L71870 41320
L72180 41320
" />
<path d="M70420 42400
L70420 41900
L70540 41900
L70610 41930
L70660 41970
L70680 42020
L70710 42120
L70710 42190
L70680 42280
L70660 42330
L70610 42380
L70540 42400
L70420 42400
" />
<path d="M70900 42260
L71130 42260
" />
<path d="M70850 42400
L71010 41900
L71180 42400
" />
<path d="M71280 41900
L71560 41900
" />
<path d="M71420 42400
L71420 41900
" />
</g>
<g style="fill:#008484; fill-opacity:0.0; 
stroke:#008484; stroke-width:0; stroke-opacity:1; 
stroke-linecap:round; stroke-linejoin:round;">
</g>
<g style="fill:#840000; fill-opacity:0.0; 
stroke:#840000; stroke-width:0; stroke-opacity:1; 
stroke-linecap:round; stroke-linejoin:round;">
</g>
<g style="fill:#840000; fill-opacity:1.0; 
stroke:#840000; stroke-width:60; stroke-opacity:1; 
stroke-linecap:round; stroke-linejoin:round;">
<rect x="69660" y="39950" width="340" height="100" rx="0" />
</g>
<g style="fill:#840000; fill-opacity:0.0; 
stroke:#840000; stroke-width:60; stroke-opacity:1; 
stroke-linecap:round; stroke-linejoin:round;">
<polyline fill="none;"
points="69500,40000
69660,40000
" /> 
<path d="M69500 40000
L68000 40000
" />
<path d="M68890 39870
L68600 39870
" />
<path d="M68750 39870
L68750 39370
L68700 39440
L68650 39490
L68600 39510
" />
</g>
<g style="fill:#008484; fill-opacity:0.0; 
stroke:#008484; stroke-width:60; stroke-opacity:1; 
stroke-linecap:round; stroke-linejoin:round;">
<path d="M70560 38990
L70560 39350
L70540 39420
L70490 39470
L70420 39490
L70370 39490
" />
<path d="M71060 39490
L70780 39490
" />
<path d="M70920 39490
L70920 38990
L70870 39060
L70820 39110
L70780 39130
" />
<path d="M71280 39300
L71660 39300
" />
<path d="M71850 38990
L72160 38990
L71990 39180
L72060 39180
L72110 39210
L72130 39230
L72160 39280
L72160 39400
L72130 39440
L72110 39470
L72060 39490
L71920 39490
L71870 39470
L71850 39440
" />
<path d="M70710 40350
L70680 40380
L70610 40400
L70560 40400
L70490 40380
L70450 40330
L70420 40280
L70400 40190
L70400 40120
L70420 40020
L70450 39970
L70490 39930
L70560 39900
L70610 39900
L70680 39930
L70710 39950
" />
<path d="M71160 40400
L70920 40400
L70920 39900
" />
<path d="M71330 40400
L71330 39900
" />
<path d="M71610 40400
L71400 40120
" />
<path d="M71610 39900
L71330 40190
" />
</g>
<g style="fill:#008484; fill-opacity:0.0; 
stroke:#008484; stroke-width:0; stroke-opacity:1; 
stroke-linecap:round; stroke-linejoin:round;">
</g>
<g style="fill:#840000; fill-opacity:0.0; 
stroke:#840000; stroke-width:0; stroke-opacity:1; 
stroke-linecap:round; stroke-linejoin:round;">
</g>
<g style="fill:#840000; fill-opacity:1.0; 
stroke:#840000; stroke-width:60; stroke-opacity:1; 
stroke-linecap:round; stroke-linejoin:round;">
<rect x="69660" y="35950" width="340" height="100" rx="0" />
</g>
<g style="fill:#840000; fill-opacity:0.0; 
stroke:#840000; stroke-width:60; stroke-opacity:1; 
stroke-linecap:round; stroke-linejoin:round;">
<polyline fill="none;"
points="69500,36000
69660,36000
" /> 
<path d="M69500 36000
L68000 36000
" />
<path d="M68890 35870
L68600 35870
" />
<path d="M68750 35870
L68750 35370
L68700 35440
L68650 35490
L68600 35510
" />
</g>
<g style="fill:#008484; fill-opacity:0.0; 
stroke:#008484; stroke-width:60; stroke-opacity:1; 
stroke-linecap:round; stroke-linejoin:round;">
<path d="M70560 34990
L70560 35350
L70540 35420
L70490 35470
L70420 35490
L70370 35490
" />
<path d="M71060 35490
L70780 35490
" />
<path d="M70920 35490
L70920 34990
L70870 35060
L70820 35110
L70780 35130
" />
<path d="M71280 35300
L71660 35300
" />
<path d="M72160 35490
L71870 35490
" />
<path d="M72010 35490
L72010 34990
L71970 35060
L71920 35110
L71870 35130
" />
<path d="M70420 36400
L70420 35900
L70610 35900
L70660 35930
L70690 35950
L70710 36000
L70710 36070
L70690 36120
L70660 36140
L70610 36160
L70420 36160
" />
<path d="M71210 36400
L71040 36160
" />
<path d="M70920 36400
L70920 35900
L71110 35900
L71160 35930
L71190 35950
L71210 36000
L71210 36070
L71190 36120
L71160 36140
L71110 36160
L70920 36160
" />
<path d="M71690 35930
L71640 35900
L71570 35900
L71500 35930
L71450 35970
L71420 36020
L71400 36120
L71400 36190
L71420 36280
L71450 36330
L71500 36380
L71570 36400
L71610 36400
L71690 36380
L71710 36350
L71710 36190
L71610 36190
" />
</g>
<g style="fill:#008484; fill-opacity:0.0; 
stroke:#008484; stroke-width:0; stroke-opacity:1; 
stroke-linecap:round; stroke-linejoin:round;">
</g>
<g style="fill:#840000; fill-opacity:0.0; 
stroke:#840000; stroke-width:0; stroke-opacity:1; 
stroke-linecap:round; stroke-linejoin:round;">
</g>
<g style="fill:#840000; fill-opacity:1.0; 
stroke:#840000; stroke-width:60; stroke-opacity:1; 
stroke-linecap:round; stroke-linejoin:round;">
<rect x="71660" y="24450" width="340" height="100" rx="0" />
<rect x="71660" y="25450" width="340" height="100" rx="0" />
<rect x="71660" y="26450" width="340" height="100" rx="0" />
<rect x="71660" y="27450" width="340" height="100" rx="0" />
</g>
<g style="fill:#840000; fill-opacity:0.0; 
stroke:#840000; stroke-width:60; stroke-opacity:1; 
stroke-linecap:round; stroke-linejoin:round;">
<polyline fill="none;"
points="71500,24500
71660,24500
" /> 
<polyline fill="none;"
points="71500,25500
71660,25500
" /> 
<polyline fill="none;"
points="71500,26500
71660,26500
" /> 
<polyline fill="none;"
points="71500,27500
71660,27500
" /> 
<path d="M71500 27500
L70000 27500
" />
<path d="M70890 27370
L70600 27370
" />
<path d="M70750 27370
L70750 26870
L70700 26940
L70650 26990
L70600 27010
" />
<path d="M71500 26500
L70000 26500
" />
<path d="M70600 25920
L70630 25900
L70670 25870
L70790 25870
L70840 25900
L70860 25920
L70890 25970
L70890 26010
L70860 26090
L70580 26370
L70890 26370
" />
<path d="M71500 25500
L70000 25500
" />
<path d="M70580 24870
L70890 24870
L70720 25060
L70790 25060
L70840 25090
L70860 25110
L70890 25160
L70890 25280
L70860 25320
L70840 25350
L70790 25370
L70650 25370
L70600 25350
L70580 25320
" />
<path d="M71500 24500
L70000 24500
" />
<path d="M70840 24040
L70840 24370
" />
<path d="M70720 23850
L70600 24200
L70910 24200
" />
</g>
<g style="fill:#008484; fill-opacity:0.0; 
stroke:#008484; stroke-width:60; stroke-opacity:1; 
stroke-linecap:round; stroke-linejoin:round;">
<path d="M71090 28520
L71450 28520
L71520 28550
L71570 28590
L71590 28660
L71590 28710
" />
<path d="M71090 28330
L71090 28020
L71280 28190
L71280 28120
L71310 28070
L71330 28050
L71380 28020
L71500 28020
L71540 28050
L71570 28070
L71590 28120
L71590 28260
L71570 28310
L71540 28330
" />
<path d="M72670 27640
L72690 27570
L72690 27450
L72670 27400
L72640 27380
L72600 27350
L72550 27350
L72500 27380
L72480 27400
L72450 27450
L72430 27540
L72410 27590
L72380 27610
L72330 27640
L72290 27640
L72240 27610
L72220 27590
L72190 27540
L72190 27420
L72220 27350
" />
<path d="M72690 26880
L72690 27160
" />
<path d="M72690 27020
L72190 27020
L72260 27070
L72310 27110
L72330 27160
" />
<path d="M72190 26570
L72190 26520
L72220 26470
L72240 26450
L72290 26420
L72380 26400
L72500 26400
L72600 26420
L72640 26450
L72670 26470
L72690 26520
L72690 26570
L72670 26610
L72640 26640
L72600 26660
L72500 26680
L72380 26680
L72290 26660
L72240 26640
L72220 26610
L72190 26570
" />
<path d="M72190 26260
L72690 26090
L72190 25920
" />
<path d="M72240 25780
L72220 25760
L72190 25710
L72190 25590
L72220 25540
L72240 25520
L72290 25490
L72330 25490
L72410 25520
L72690 25800
L72690 25490
" />
<path d="M72430 25110
L72430 25280
" />
<path d="M72690 25280
L72190 25280
L72190 25040
" />
<path d="M72690 24590
L72690 24880
" />
<path d="M72690 24730
L72190 24730
L72260 24780
L72310 24830
L72330 24880
" />
<path d="M72240 24400
L72220 24380
L72190 24330
L72190 24210
L72220 24160
L72240 24140
L72290 24110
L72330 24110
L72410 24140
L72690 24420
L72690 24110
" />
</g>
<g style="fill:#008484; fill-opacity:0.0; 
stroke:#008484; stroke-width:0; stroke-opacity:1; 
stroke-linecap:round; stroke-linejoin:round;">
</g>
<g style="fill:#840000; fill-opacity:0.0; 
stroke:#840000; stroke-width:0; stroke-opacity:1; 
stroke-linecap:round; stroke-linejoin:round;">
</g>
<g style="fill:#840000; fill-opacity:0.0; 
stroke:#840000; stroke-width:100; stroke-opacity:1; 
stroke-linecap:round; stroke-linejoin:round;">
<rect x="49600" y="41000" width="800" height="2000" rx="0" />
</g>
<g style="fill:#840000; fill-opacity:0.0; 
stroke:#840000; stroke-width:60; stroke-opacity:1; 
stroke-linecap:round; stroke-linejoin:round;">
<path d="M50000 43000
L50000 43500
" />
<path d="M50000 41000
L50000 40500
" />
</g>
<g style="fill:#008484; fill-opacity:0.0; 
stroke:#008484; stroke-width:60; stroke-opacity:1; 
stroke-linecap:round; stroke-linejoin:round;">
<path d="M51130 41730
L50970 41490
" />
<path d="M50850 41730
L50850 41230
L51040 41230
L51080 41260
L51110 41280
L51130 41330
L51130 41400
L51110 41450
L51080 41470
L51040 41490
L50850 41490
" />
<path d="M51610 41730
L51320 41730
" />
<path d="M51470 41730
L51470 41230
L51420 41300
L51370 41350
L51320 41370
" />
<path d="M50820 42190
L50840 42170
L50890 42140
L51010 42140
L51050 42170
L51080 42190
L51100 42240
L51100 42280
L51080 42360
L50790 42640
L51100 42640
" />
<path d="M51290 42190
L51320 42170
L51360 42140
L51480 42140
L51530 42170
L51550 42190
L51580 42240
L51580 42280
L51550 42360
L51270 42640
L51580 42640
" />
<path d="M51890 42140
L51940 42140
L51980 42170
L52010 42190
L52030 42240
L52050 42330
L52050 42450
L52030 42550
L52010 42590
L51980 42620
L51940 42640
L51890 42640
L51840 42620
L51820 42590
L51790 42550
L51770 42450
L51770 42330
L51790 42240
L51820 42190
L51840 42170
L51890 42140
" />
<path d="M52550 42640
L52390 42400
" />
<path d="M52270 42640
L52270 42140
L52460 42140
L52510 42170
L52530 42190
L52550 42240
L52550 42310
L52530 42360
L52510 42380
L52460 42400
L52270 42400
" />
</g>
<g style="fill:#008484; fill-opacity:0.0; 
stroke:#008484; stroke-width:0; stroke-opacity:1; 
stroke-linecap:round; stroke-linejoin:round;">
</g>
<g style="fill:#840000; fill-opacity:0.0; 
stroke:#840000; stroke-width:0; stroke-opacity:1; 
stroke-linecap:round; stroke-linejoin:round;">
</g>
<g style="fill:#840000; fill-opacity:0.0; 
stroke:#840000; stroke-width:50; stroke-opacity:1; 
stroke-linecap:round; stroke-linejoin:round;">
<circle cx="59000" cy="32000" r="100" /> 
<circle cx="60000" cy="32000" r="100" /> 
<polyline fill="none;"
points="57500,34000
61500,34000
" /> 
<polyline fill="none;"
points="57500,33000
57500,34000
" /> 
<polyline fill="none;"
points="57500,31000
57500,33000
" /> 
<polyline fill="none;"
points="57500,31000
58000,31000
" /> 
<polyline fill="none;"
points="57500,30000
57500,31000
" /> 
<polyline fill="none;"
points="57500,30000
61500,30000
" /> 
<polyline fill="none;"
points="58000,33000
57500,33000
" /> 
<polyline fill="none;"
points="58000,32000
58000,33000
" /> 
<polyline fill="none;"
points="58000,32000
59000,32000
" /> 
<polyline fill="none;"
points="58000,31000
58000,32000
" /> 
<polyline fill="none;"
points="59000,32000
60000,31500
" /> 
<polyline fill="none;"
points="60000,32000
61000,32000
" /> 
<polyline fill="none;"
points="61000,33000
61500,33000
" /> 
<polyline fill="none;"
points="61000,32000
61000,33000
" /> 
<polyline fill="none;"
points="61000,32000
61000,31000
" /> 
<polyline fill="none;"
points="61000,31000
61500,31000
" /> 
<polyline fill="none;"
points="61500,33000
61500,34000
" /> 
<polyline fill="none;"
points="61500,31000
61500,33000
" /> 
<polyline fill="none;"
points="61500,30000
61500,31000
" /> 
</g>
<g style="fill:#840000; fill-opacity:0.0; 
stroke:#840000; stroke-width:60; stroke-opacity:1; 
stroke-linecap:round; stroke-linejoin:round;">
<path d="M57500 31000
L55500 31000
" />
<path d="M56610 30880
L56380 30880
" />
<path d="M56500 30880
L56500 30480
L56460 30530
L56420 30570
L56380 30590
" />
<path d="M57500 33000
L55500 33000
" />
<path d="M56380 32510
L56400 32500
L56440 32480
L56530 32480
L56570 32500
L56590 32510
L56610 32550
L56610 32590
L56590 32650
L56360 32880
L56610 32880
" />
<path d="M61500 31000
L63500 31000
" />
<path d="M62360 30480
L62610 30480
L62480 30630
L62530 30630
L62570 30650
L62590 30670
L62610 30700
L62610 30800
L62590 30840
L62570 30860
L62530 30880
L62420 30880
L62380 30860
L62360 30840
" />
<path d="M61500 33000
L63500 33000
" />
<path d="M62570 32610
L62570 32880
" />
<path d="M62480 32460
L62380 32740
L62630 32740
" />
</g>
<g style="fill:#008484; fill-opacity:0.0; 
stroke:#008484; stroke-width:60; stroke-opacity:1; 
stroke-linecap:round; stroke-linejoin:round;">
<path d="M58830 28570
L58900 28590
L59020 28590
L59070 28570
L59090 28540
L59110 28500
L59110 28450
L59090 28400
L59070 28380
L59020 28350
L58920 28330
L58880 28310
L58850 28280
L58830 28230
L58830 28190
L58850 28140
L58880 28120
L58920 28090
L59040 28090
L59110 28120
" />
<path d="M59280 28090
L59400 28590
L59500 28230
L59590 28590
L59710 28090
" />
<path d="M60160 28590
L59880 28590
" />
<path d="M60020 28590
L60020 28090
L59970 28160
L59920 28210
L59880 28230
" />
<path d="M57080 29170
L57270 29170
" />
<path d="M57150 29000
L57150 29430
L57170 29480
L57220 29500
L57270 29500
" />
<path d="M57510 29500
L57460 29480
L57440 29450
L57410 29410
L57410 29260
L57440 29220
L57460 29190
L57510 29170
L57580 29170
L57630 29190
L57650 29220
L57670 29260
L57670 29410
L57650 29450
L57630 29480
L57580 29500
L57510 29500
" />
<path d="M58100 29170
L58100 29570
L58080 29620
L58050 29640
L58010 29670
L57940 29670
L57890 29640
" />
<path d="M58100 29480
L58050 29500
L57960 29500
L57910 29480
L57890 29450
L57860 29410
L57860 29260
L57890 29220
L57910 29190
L57960 29170
L58050 29170
L58100 29190
" />
<path d="M58550 29170
L58550 29570
L58530 29620
L58510 29640
L58460 29670
L58390 29670
L58340 29640
" />
<path d="M58550 29480
L58510 29500
L58410 29500
L58360 29480
L58340 29450
L58320 29410
L58320 29260
L58340 29220
L58360 29190
L58410 29170
L58510 29170
L58550 29190
" />
<path d="M58860 29500
L58820 29480
L58790 29430
L58790 29000
" />
<path d="M59250 29480
L59200 29500
L59100 29500
L59050 29480
L59030 29430
L59030 29240
L59050 29190
L59100 29170
L59200 29170
L59250 29190
L59270 29240
L59270 29290
L59030 29330
" />
<path d="M59480 29310
L59860 29310
" />
<path d="M60080 29480
L60130 29500
L60220 29500
L60270 29480
L60290 29430
L60290 29410
L60270 29360
L60220 29330
L60150 29330
L60100 29310
L60080 29260
L60080 29240
L60100 29190
L60150 29170
L60220 29170
L60270 29190
" />
<path d="M60580 29500
L60530 29480
L60510 29430
L60510 29000
" />
<path d="M60960 29480
L60910 29500
L60820 29500
L60770 29480
L60750 29430
L60750 29240
L60770 29190
L60820 29170
L60910 29170
L60960 29190
L60980 29240
L60980 29290
L60750 29330
" />
<path d="M61390 29480
L61340 29500
L61250 29500
L61200 29480
L61170 29430
L61170 29240
L61200 29190
L61250 29170
L61340 29170
L61390 29190
L61410 29240
L61410 29290
L61170 29330
" />
<path d="M61630 29170
L61630 29670
" />
<path d="M61630 29190
L61670 29170
L61770 29170
L61820 29190
L61840 29220
L61860 29260
L61860 29410
L61840 29450
L61820 29480
L61770 29500
L61670 29500
L61630 29480
" />
</g>
<g style="fill:#008484; fill-opacity:0.0; 
stroke:#008484; stroke-width:0; stroke-opacity:1; 
stroke-linecap:round; stroke-linejoin:round;">
</g>
<g style="fill:#840000; fill-opacity:0.0; 
stroke:#840000; stroke-width:0; stroke-opacity:1; 
stroke-linecap:round; stroke-linejoin:round;">
</g>
<g style="fill:#840000; fill-opacity:0.0; 
stroke:#840000; stroke-width:100; stroke-opacity:1; 
stroke-linecap:round; stroke-linejoin:round;">
<rect x="65600" y="28500" width="800" height="2000" rx="0" />
</g>
<g style="fill:#840000; fill-opacity:0.0; 
stroke:#840000; stroke-width:60; stroke-opacity:1; 
stroke-linecap:round; stroke-linejoin:round;">
<path d="M66000 30500
L66000 31000
" />
<path d="M66000 28500
L66000 28000
" />
</g>
<g style="fill:#008484; fill-opacity:0.0; 
stroke:#008484; stroke-width:60; stroke-opacity:1; 
stroke-linecap:round; stroke-linejoin:round;">
<path d="M67130 29230
L66970 28990
" />
<path d="M66850 29230
L66850 28730
L67040 28730
L67080 28760
L67110 28780
L67130 28830
L67130 28900
L67110 28950
L67080 28970
L67040 28990
L66850 28990
" />
<path d="M67320 28780
L67350 28760
L67390 28730
L67510 28730
L67560 28760
L67580 28780
L67610 28830
L67610 28870
L67580 28950
L67300 29230
L67610 29230
" />
<path d="M67110 30140
L66820 30140
" />
<path d="M66970 30140
L66970 29640
L66920 29710
L66870 29760
L66820 29780
" />
<path d="M67320 30140
L67320 29640
" />
<path d="M67610 30140
L67390 29860
" />
<path d="M67610 29640
L67320 29930
" />
</g>
<g style="fill:#008400; fill-opacity:0.0; 
stroke:#008400; stroke-width:60; stroke-opacity:1; 
stroke-linecap:round; stroke-linejoin:round;">
<path d="M53500 44000
L53500 32000
" />
<path d="M53500 26500
L70000 26500
" />
<path d="M63500 33000
L64000 33000
" />
<path d="M64000 31000
L63500 31000
" />
<path d="M66000 34500
L66000 36000
" />
<path d="M66000 36000
L68000 36000
" />
<path d="M70000 27500
L66000 27500
" />
<path d="M66000 28000
L66000 27500
" />
<path d="M55500 31000
L55000 31000
" />
<path d="M55000 31000
L55000 32000
" />
<path d="M55000 33000
L55500 33000
" />
<path d="M55000 32000
L53500 32000
" />
</g>
<g style="fill:#008400; fill-opacity:0.0; 
stroke:#008400; stroke-width:0; stroke-opacity:1; 
stroke-linecap:round; stroke-linejoin:round;">
</g>
<g style="fill:#008400; fill-opacity:1.0; 
stroke:#008400; stroke-width:100; stroke-opacity:1; 
stroke-linecap:round; stroke-linejoin:round;">
<circle cx="55000" cy="32000" r="200" /> 
</g>
<g style="fill:#008400; fill-opacity:1.0; 
stroke:#008400; stroke-width:60; stroke-opacity:1; 
stroke-linecap:round; stroke-linejoin:round;">
</g>
<g style="fill:#008400; fill-opacity:0.0; 
stroke:#008400; stroke-width:60; stroke-opacity:1; 
stroke-linecap:round; stroke-linejoin:round;">
<path d="M55000 32000
L55000 33000
" />
</g>
<g style="fill:#008400; fill-opacity:0.0; 
stroke:#008400; stroke-width:0; stroke-opacity:1; 
stroke-linecap:round; stroke-linejoin:round;">
</g>
<g style="fill:#008400; fill-opacity:1.0; 
stroke:#008400; stroke-width:100; stroke-opacity:1; 
stroke-linecap:round; stroke-linejoin:round;">
<circle cx="53500" cy="32000" r="200" /> 
</g>
<g style="fill:#008400; fill-opacity:1.0; 
stroke:#008400; stroke-width:60; stroke-opacity:1; 
stroke-linecap:round; stroke-linejoin:round;">
</g>
<g style="fill:#008400; fill-opacity:0.0; 
stroke:#008400; stroke-width:60; stroke-opacity:1; 
stroke-linecap:round; stroke-linejoin:round;">
<path d="M53500 32000
L53500 26500
" />
<path d="M50000 46000
L68000 46000
" />
</g>
<g style="fill:#008400; fill-opacity:0.0; 
stroke:#008400; stroke-width:0; stroke-opacity:1; 
stroke-linecap:round; stroke-linejoin:round;">
</g>
<g style="fill:#840000; fill-opacity:0.0; 
stroke:#840000; stroke-width:0; stroke-opacity:1; 
stroke-linecap:round; stroke-linejoin:round;">
</g>
<g style="fill:#FFFFC2; fill-opacity:0.0; 
stroke:#FFFFC2; stroke-width:0; stroke-opacity:1; 
stroke-linecap:round; stroke-linejoin:round;">
</g>
<g style="fill:#FFFFC2; fill-opacity:0.6; 
stroke:#FFFFC2; stroke-width:0; stroke-opacity:1; 
stroke-linecap:round; stroke-linejoin:round;">
<rect x="42000" y="39500" width="2000" height="5000" rx="0" />
</g>
<g style="fill:#840000; fill-opacity:0.6; 
stroke:#840000; stroke-width:0; stroke-opacity:1; 
stroke-linecap:round; stroke-linejoin:round;">
</g>
<g style="fill:#840000; fill-opacity:0.0; 
stroke:#840000; stroke-width:100; stroke-opacity:1; 
stroke-linecap:round; stroke-linejoin:round;">
<rect x="42000" y="39500" width="2000" height="5000" rx="0" />
</g>
<g style="fill:#840000; fill-opacity:0.0; 
stroke:#840000; stroke-width:60; stroke-opacity:1; 
stroke-linecap:round; stroke-linejoin:round;">
<rect x="42000" y="43950" width="500" height="100" rx="0" />
<rect x="42000" y="42950" width="500" height="100" rx="0" />
<rect x="42000" y="41950" width="500" height="100" rx="0" />
<rect x="42000" y="40950" width="500" height="100" rx="0" />
<rect x="42000" y="39950" width="500" height="100" rx="0" />
<rect x="43500" y="43950" width="500" height="100" rx="0" />
<rect x="43500" y="42950" width="500" height="100" rx="0" />
<rect x="43500" y="41950" width="500" height="100" rx="0" />
<rect x="43500" y="40950" width="500" height="100" rx="0" />
<rect x="43500" y="39950" width="500" height="100" rx="0" />
<path d="M42000 40000
L40500 40000
" />
<path d="M41390 39870
L41100 39870
" />
<path d="M41250 39870
L41250 39370
L41200 39440
L41150 39490
L41100 39510
" />
<path d="M44000 44000
L45500 44000
" />
<path d="M44650 43870
L44360 43870
" />
<path d="M44510 43870
L44510 43370
L44460 43440
L44410 43490
L44360 43510
" />
<path d="M44960 43370
L45010 43370
L45050 43400
L45080 43420
L45100 43470
L45130 43560
L45130 43680
L45100 43780
L45080 43820
L45050 43850
L45010 43870
L44960 43870
L44910 43850
L44890 43820
L44860 43780
L44840 43680
L44840 43560
L44860 43470
L44890 43420
L44910 43400
L44960 43370
" />
<path d="M44000 40000
L45500 40000
" />
<path d="M44600 39420
L44630 39400
L44670 39370
L44790 39370
L44840 39400
L44860 39420
L44890 39470
L44890 39510
L44860 39590
L44580 39870
L44890 39870
" />
<path d="M42000 41000
L40500 41000
" />
<path d="M41080 40370
L41390 40370
L41220 40560
L41290 40560
L41340 40590
L41360 40610
L41390 40660
L41390 40780
L41360 40820
L41340 40850
L41290 40870
L41150 40870
L41100 40850
L41080 40820
" />
<path d="M44000 41000
L45500 41000
" />
<path d="M44840 40540
L44840 40870
" />
<path d="M44720 40350
L44600 40700
L44910 40700
" />
<path d="M42000 42000
L40500 42000
" />
<path d="M41360 41370
L41130 41370
L41100 41610
L41130 41590
L41170 41560
L41290 41560
L41340 41590
L41360 41610
L41390 41660
L41390 41780
L41360 41820
L41340 41850
L41290 41870
L41170 41870
L41130 41850
L41100 41820
" />
<path d="M44000 42000
L45500 42000
" />
<path d="M44840 41370
L44750 41370
L44700 41400
L44670 41420
L44630 41490
L44600 41590
L44600 41780
L44630 41820
L44650 41850
L44700 41870
L44790 41870
L44840 41850
L44860 41820
L44890 41780
L44890 41660
L44860 41610
L44840 41590
L44790 41560
L44700 41560
L44650 41590
L44630 41610
L44600 41660
" />
<path d="M42000 43000
L40500 43000
" />
<path d="M41080 42370
L41410 42370
L41200 42870
" />
<path d="M44000 43000
L45500 43000
" />
<path d="M44700 42590
L44650 42560
L44630 42540
L44600 42490
L44600 42470
L44630 42420
L44650 42400
L44700 42370
L44790 42370
L44840 42400
L44860 42420
L44890 42470
L44890 42490
L44860 42540
L44840 42560
L44790 42590
L44700 42590
L44650 42610
L44630 42630
L44600 42680
L44600 42780
L44630 42820
L44650 42850
L44700 42870
L44790 42870
L44840 42850
L44860 42820
L44890 42780
L44890 42680
L44860 42630
L44840 42610
L44790 42590
" />
<path d="M42000 44000
L40500 44000
" />
<path d="M41150 43870
L41250 43870
L41290 43850
L41320 43820
L41360 43750
L41390 43660
L41390 43470
L41360 43420
L41340 43400
L41290 43370
L41200 43370
L41150 43400
L41130 43420
L41100 43470
L41100 43590
L41130 43630
L41150 43660
L41200 43680
L41290 43680
L41340 43660
L41360 43630
L41390 43590
" />
</g>
<g style="fill:#008484; fill-opacity:0.0; 
stroke:#008484; stroke-width:60; stroke-opacity:1; 
stroke-linecap:round; stroke-linejoin:round;">
<path d="M42830 37570
L42830 37930
L42800 38000
L42760 38050
L42690 38070
L42640 38070
" />
<path d="M43040 37620
L43070 37600
L43110 37570
L43230 37570
L43280 37600
L43300 37620
L43330 37670
L43330 37710
L43300 37790
L43020 38070
L43330 38070
" />
<path d="M41660 38480
L41660 38890
L41690 38930
L41710 38960
L41760 38980
L41850 38980
L41900 38960
L41920 38930
L41950 38890
L41950 38480
" />
<path d="M42160 38960
L42230 38980
L42350 38980
L42400 38960
L42420 38930
L42450 38890
L42450 38840
L42420 38790
L42400 38770
L42350 38740
L42260 38720
L42210 38700
L42190 38670
L42160 38620
L42160 38580
L42190 38530
L42210 38510
L42260 38480
L42380 38480
L42450 38510
" />
<path d="M42830 38720
L42900 38740
L42920 38770
L42950 38810
L42950 38890
L42920 38930
L42900 38960
L42850 38980
L42660 38980
L42660 38480
L42830 38480
L42880 38510
L42900 38530
L42920 38580
L42920 38620
L42900 38670
L42880 38700
L42830 38720
L42660 38720
" />
<path d="M43140 38840
L43380 38840
" />
<path d="M43090 38980
L43260 38480
L43420 38980
" />
<path d="M43570 38960
L43640 38980
L43760 38980
L43800 38960
L43830 38930
L43850 38890
L43850 38840
L43830 38790
L43800 38770
L43760 38740
L43660 38720
L43610 38700
L43590 38670
L43570 38620
L43570 38580
L43590 38530
L43610 38510
L43660 38480
L43780 38480
L43850 38510
" />
<path d="M44070 38980
L44070 38480
L44260 38480
L44300 38510
L44330 38530
L44350 38580
L44350 38650
L44330 38700
L44300 38720
L44260 38740
L44070 38740
" />
</g>
<g style="fill:#008400; fill-opacity:0.0; 
stroke:#008400; stroke-width:60; stroke-opacity:1; 
stroke-linecap:round; stroke-linejoin:round;">
<path d="M45500 43000
L46000 43000
" />
<path d="M46000 43000
L46000 44000
" />
<path d="M45500 44000
L46000 44000
" />
</g>
<g style="fill:#008400; fill-opacity:0.0; 
stroke:#008400; stroke-width:0; stroke-opacity:1; 
stroke-linecap:round; stroke-linejoin:round;">
</g>
<g style="fill:#008400; fill-opacity:1.0; 
stroke:#008400; stroke-width:100; stroke-opacity:1; 
stroke-linecap:round; stroke-linejoin:round;">
<circle cx="46000" cy="44000" r="200" /> 
</g>
<g style="fill:#008400; fill-opacity:1.0; 
stroke:#008400; stroke-width:60; stroke-opacity:1; 
stroke-linecap:round; stroke-linejoin:round;">
</g>
<g style="fill:#008400; fill-opacity:0.0; 
stroke:#008400; stroke-width:60; stroke-opacity:1; 
stroke-linecap:round; stroke-linejoin:round;">
<path d="M61500 40000
L61500 35500
" />
<path d="M61500 35500
L36000 35500
" />
<path d="M36000 35500
L36000 43000
" />
<path d="M58000 37000
L58000 42000
" />
<path d="M58000 42000
L68000 42000
" />
<path d="M61500 40000
L68000 40000
" />
<path d="M50000 43500
L50000 46000
" />
<path d="M50000 40500
L50000 40000
" />
</g>
<g style="fill:#008400; fill-opacity:0.0; 
stroke:#008400; stroke-width:0; stroke-opacity:1; 
stroke-linecap:round; stroke-linejoin:round;">
</g>
<g style="fill:#840000; fill-opacity:0.0; 
stroke:#840000; stroke-width:0; stroke-opacity:1; 
stroke-linecap:round; stroke-linejoin:round;">
</g>
<g style="fill:#840000; fill-opacity:0.0; 
stroke:#840000; stroke-width:60; stroke-opacity:1; 
stroke-linecap:round; stroke-linejoin:round;">
<path d="M44099.8 30499.3 A640 640 0.0 0 0 45099.5 30500.2 " />
<path d="M42899.8 30499.3 A640 640 0.0 0 0 43899.5 30500.2 " />
<circle cx="45200" cy="30000" r="350" /> 
<circle cx="44000" cy="30000" r="360" /> 
<circle cx="42800" cy="30000" r="350" /> 
<path d="M45550 30000
L46500 30000
" />
<path d="M46160 29870
L45870 29870
" />
<path d="M46020 29870
L46020 29370
L45970 29440
L45920 29490
L45870 29510
" />
<path d="M44000 29600
L44000 29000
" />
<path d="M43420 29440
L43400 29410
L43370 29370
L43370 29250
L43400 29200
L43420 29180
L43470 29150
L43510 29150
L43590 29180
L43870 29460
L43870 29150
" />
<path d="M42450 30000
L41500 30000
" />
<path d="M41800 29370
L42110 29370
L41940 29560
L42010 29560
L42060 29590
L42080 29610
L42110 29660
L42110 29780
L42080 29820
L42060 29850
L42010 29870
L41870 29870
L41820 29850
L41800 29820
" />
</g>
<g style="fill:#008484; fill-opacity:0.0; 
stroke:#008484; stroke-width:60; stroke-opacity:1; 
stroke-linecap:round; stroke-linejoin:round;">
<path d="M43580 31150
L43580 31510
L43550 31580
L43510 31630
L43440 31650
L43390 31650
" />
<path d="M43820 31650
L43820 31150
L44010 31150
L44050 31180
L44080 31200
L44100 31250
L44100 31320
L44080 31370
L44050 31390
L44010 31410
L43820 31410
" />
<path d="M44580 31650
L44290 31650
" />
<path d="M44440 31650
L44440 31150
L44390 31220
L44340 31270
L44290 31290
" />
<path d="M41610 32560
L41610 32060
L41800 32060
L41850 32090
L41880 32110
L41900 32160
L41900 32230
L41880 32280
L41850 32300
L41800 32320
L41610 32320
" />
<path d="M42400 32560
L42230 32320
" />
<path d="M42110 32560
L42110 32060
L42300 32060
L42350 32090
L42380 32110
L42400 32160
L42400 32230
L42380 32280
L42350 32300
L42300 32320
L42110 32320
" />
<path d="M42880 32090
L42830 32060
L42760 32060
L42690 32090
L42640 32130
L42610 32180
L42590 32280
L42590 32350
L42610 32440
L42640 32490
L42690 32540
L42760 32560
L42800 32560
L42880 32540
L42900 32510
L42900 32350
L42800 32350
" />
<path d="M43110 32560
L43110 32060
L43280 32420
L43450 32060
L43450 32560
" />
<path d="M44040 32540
L44110 32560
L44230 32560
L44280 32540
L44300 32510
L44330 32470
L44330 32420
L44300 32370
L44280 32350
L44230 32320
L44140 32300
L44090 32280
L44070 32250
L44040 32200
L44040 32160
L44070 32110
L44090 32090
L44140 32060
L44260 32060
L44330 32090
" />
<path d="M44610 32560
L44570 32540
L44540 32510
L44520 32470
L44520 32320
L44540 32280
L44570 32250
L44610 32230
L44690 32230
L44730 32250
L44760 32280
L44780 32320
L44780 32470
L44760 32510
L44730 32540
L44690 32560
L44610 32560
" />
<path d="M45210 32230
L45210 32560
" />
<path d="M45000 32230
L45000 32490
L45020 32540
L45070 32560
L45140 32560
L45190 32540
L45210 32510
" />
<path d="M45450 32560
L45450 32230
" />
<path d="M45450 32320
L45470 32280
L45500 32250
L45540 32230
L45590 32230
" />
<path d="M45970 32540
L45920 32560
L45830 32560
L45780 32540
L45760 32510
L45730 32470
L45730 32320
L45760 32280
L45780 32250
L45830 32230
L45920 32230
L45970 32250
" />
<path d="M46380 32540
L46330 32560
L46230 32560
L46190 32540
L46160 32490
L46160 32300
L46190 32250
L46230 32230
L46330 32230
L46380 32250
L46400 32300
L46400 32350
L46160 32390
" />
</g>
<g style="fill:#008400; fill-opacity:0.0; 
stroke:#008400; stroke-width:60; stroke-opacity:1; 
stroke-linecap:round; stroke-linejoin:round;">
<path d="M40500 42000
L35000 42000
" />
<path d="M35000 30000
L41500 30000
" />
<path d="M46500 30000
L50000 30000
" />
<path d="M50000 30000
L50000 40000
" />
</g>
<g style="fill:#008400; fill-opacity:0.0; 
stroke:#008400; stroke-width:0; stroke-opacity:1; 
stroke-linecap:round; stroke-linejoin:round;">
</g>
<g style="fill:#008400; fill-opacity:1.0; 
stroke:#008400; stroke-width:100; stroke-opacity:1; 
stroke-linecap:round; stroke-linejoin:round;">
<circle cx="50000" cy="40000" r="200" /> 
</g>
<g style="fill:#008400; fill-opacity:1.0; 
stroke:#008400; stroke-width:60; stroke-opacity:1; 
stroke-linecap:round; stroke-linejoin:round;">
</g>
<g style="fill:#008400; fill-opacity:0.0; 
stroke:#008400; stroke-width:60; stroke-opacity:1; 
stroke-linecap:round; stroke-linejoin:round;">
<path d="M37000 44000
L37000 40000
" />
<path d="M37000 40000
L40500 40000
" />
<path d="M37000 40000
L37000 37000
" />
<path d="M37000 37000
L58000 37000
" />
</g>
<g style="fill:#008400; fill-opacity:0.0; 
stroke:#008400; stroke-width:0; stroke-opacity:1; 
stroke-linecap:round; stroke-linejoin:round;">
</g>
<g style="fill:#008400; fill-opacity:1.0; 
stroke:#008400; stroke-width:100; stroke-opacity:1; 
stroke-linecap:round; stroke-linejoin:round;">
<circle cx="37000" cy="40000" r="200" /> 
</g>
<g style="fill:#008400; fill-opacity:1.0; 
stroke:#008400; stroke-width:60; stroke-opacity:1; 
stroke-linecap:round; stroke-linejoin:round;">
</g>
<g style="fill:#008400; fill-opacity:0.0; 
stroke:#008400; stroke-width:60; stroke-opacity:1; 
stroke-linecap:round; stroke-linejoin:round;">
<path d="M45500 42000
L46000 42000
" />
<path d="M46000 42000
L46000 43000
" />
</g>
<g style="fill:#008400; fill-opacity:0.0; 
stroke:#008400; stroke-width:0; stroke-opacity:1; 
stroke-linecap:round; stroke-linejoin:round;">
</g>
<g style="fill:#008400; fill-opacity:1.0; 
stroke:#008400; stroke-width:100; stroke-opacity:1; 
stroke-linecap:round; stroke-linejoin:round;">
<circle cx="46000" cy="43000" r="200" /> 
</g>
<g style="fill:#008400; fill-opacity:1.0; 
stroke:#008400; stroke-width:60; stroke-opacity:1; 
stroke-linecap:round; stroke-linejoin:round;">
</g>
<g style="fill:#008400; fill-opacity:0.0; 
stroke:#008400; stroke-width:60; stroke-opacity:1; 
stroke-linecap:round; stroke-linejoin:round;">
<path d="M45500 41000
L46000 41000
" />
<path d="M46000 41000
L46000 42000
" />
</g>
<g style="fill:#008400; fill-opacity:0.0; 
stroke:#008400; stroke-width:0; stroke-opacity:1; 
stroke-linecap:round; stroke-linejoin:round;">
</g>
<g style="fill:#008400; fill-opacity:1.0; 
stroke:#008400; stroke-width:100; stroke-opacity:1; 
stroke-linecap:round; stroke-linejoin:round;">
<circle cx="46000" cy="42000" r="200" /> 
</g>
<g style="fill:#008400; fill-opacity:1.0; 
stroke:#008400; stroke-width:60; stroke-opacity:1; 
stroke-linecap:round; stroke-linejoin:round;">
</g>
<g style="fill:#000084; fill-opacity:1.0; 
stroke:#000084; stroke-width:60; stroke-opacity:1; 
stroke-linecap:round; stroke-linejoin:round;">
</g>
<g style="fill:#000084; fill-opacity:0.0; 
stroke:#000084; stroke-width:60; stroke-opacity:1; 
stroke-linecap:round; stroke-linejoin:round;">
<path d="M40260 40760
L40740 41240
" />
<path d="M40740 40760
L40260 41240
" />
</g>
<g style="fill:#000084; fill-opacity:0.0; 
stroke:#000084; stroke-width:0; stroke-opacity:1; 
stroke-linecap:round; stroke-linejoin:round;">
</g>
<g style="fill:#840000; fill-opacity:0.0; 
stroke:#840000; stroke-width:0; stroke-opacity:1; 
stroke-linecap:round; stroke-linejoin:round;">
</g>
<g style="fill:#840000; fill-opacity:0.0; 
stroke:#840000; stroke-width:60; stroke-opacity:1; 
stroke-linecap:round; stroke-linejoin:round;">
<polyline fill="none;"
points="66000,32500
66000,33500
" /> 
</g>
<g style="fill:#840000; fill-opacity:0.0; 
stroke:#840000; stroke-width:80; stroke-opacity:1; 
stroke-linecap:round; stroke-linejoin:round;">
<polyline fill="none;"
points="65500,32500
66500,32500
66000,33500
65500,32500
" /> 
<polyline fill="none;"
points="65750,33750
65500,33750
65500,33500
66500,33500
66500,33250
66250,33250
" /> 
</g>
<g style="fill:#840000; fill-opacity:0.0; 
stroke:#840000; stroke-width:60; stroke-opacity:1; 
stroke-linecap:round; stroke-linejoin:round;">
<path d="M66000 33500
L66000 34500
" />
<path d="M66000 32500
L66000 31500
" />
</g>
<g style="fill:#008484; fill-opacity:0.0; 
stroke:#008484; stroke-width:60; stroke-opacity:1; 
stroke-linecap:round; stroke-linejoin:round;">
<path d="M66940 32730
L66940 32230
L67060 32230
L67130 32260
L67170 32300
L67200 32350
L67220 32450
L67220 32520
L67200 32610
L67170 32660
L67130 32710
L67060 32730
L66940 32730
" />
<path d="M67700 32730
L67410 32730
" />
<path d="M67560 32730
L67560 32230
L67510 32300
L67460 32350
L67410 32370
" />
<path d="M66900 33620
L66970 33640
L67090 33640
L67140 33620
L67170 33590
L67190 33550
L67190 33500
L67170 33450
L67140 33430
L67090 33400
L67000 33380
L66950 33360
L66930 33330
L66900 33280
L66900 33240
L66930 33190
L66950 33170
L67000 33140
L67120 33140
L67190 33170
" />
<path d="M67330 33140
L67620 33140
" />
<path d="M67470 33640
L67470 33140
" />
<path d="M67780 33640
L67780 33140
L67970 33140
L68020 33170
L68050 33190
L68070 33240
L68070 33310
L68050 33360
L68020 33380
L67970 33400
L67780 33400
" />
<path d="M68260 33620
L68330 33640
L68450 33640
L68500 33620
L68520 33590
L68550 33550
L68550 33500
L68520 33450
L68500 33430
L68450 33400
L68360 33380
L68310 33360
L68280 33330
L68260 33280
L68260 33240
L68280 33190
L68310 33170
L68360 33140
L68470 33140
L68550 33170
" />
<path d="M68860 33140
L68900 33140
L68950 33170
L68970 33190
L69000 33240
L69020 33330
L69020 33450
L69000 33550
L68970 33590
L68950 33620
L68900 33640
L68860 33640
L68810 33620
L68780 33590
L68760 33550
L68740 33450
L68740 33330
L68760 33240
L68780 33190
L68810 33170
L68860 33140
" />
<path d="M69470 33140
L69240 33140
L69210 33380
L69240 33360
L69280 33330
L69400 33330
L69450 33360
L69470 33380
L69500 33430
L69500 33550
L69470 33590
L69450 33620
L69400 33640
L69280 33640
L69240 33620
L69210 33590
" />
<path d="M69690 33190
L69710 33170
L69760 33140
L69880 33140
L69930 33170
L69950 33190
L69970 33240
L69970 33280
L69950 33360
L69670 33640
L69970 33640
" />
<path d="M70280 33140
L70330 33140
L70380 33170
L70400 33190
L70430 33240
L70450 33330
L70450 33450
L70430 33550
L70400 33590
L70380 33620
L70330 33640
L70280 33640
L70240 33620
L70210 33590
L70190 33550
L70170 33450
L70170 33330
L70190 33240
L70210 33190
L70240 33170
L70280 33140
" />
<path d="M70620 33140
L70950 33140
L70620 33640
L70950 33640
" />
</g>
<g style="fill:#008400; fill-opacity:0.0; 
stroke:#008400; stroke-width:60; stroke-opacity:1; 
stroke-linecap:round; stroke-linejoin:round;">
<path d="M64000 31000
L64000 33000
" />
<path d="M66000 31000
L66000 31500
" />
<path d="M66000 36000
L64000 36000
" />
<path d="M64000 36000
L64000 33000
" />
</g>
<g style="fill:#008400; fill-opacity:0.0; 
stroke:#008400; stroke-width:0; stroke-opacity:1; 
stroke-linecap:round; stroke-linejoin:round;">
</g>
<g style="fill:#008400; fill-opacity:1.0; 
stroke:#008400; stroke-width:100; stroke-opacity:1; 
stroke-linecap:round; stroke-linejoin:round;">
<circle cx="66000" cy="36000" r="200" /> 
</g>
<g style="fill:#008400; fill-opacity:1.0; 
stroke:#008400; stroke-width:0; stroke-opacity:1; 
stroke-linecap:round; stroke-linejoin:round;">
</g>
<g style="fill:#008400; fill-opacity:1.0; 
stroke:#008400; stroke-width:100; stroke-opacity:1; 
stroke-linecap:round; stroke-linejoin:round;">
<circle cx="64000" cy="33000" r="200" /> 
</g>
<g style="fill:#008400; fill-opacity:1.0; 
stroke:#008400; stroke-width:60; stroke-opacity:1; 
stroke-linecap:round; stroke-linejoin:round;">
</g>
<g style="fill:#008400; fill-opacity:0.0; 
stroke:#008400; stroke-width:60; stroke-opacity:1; 
stroke-linecap:round; stroke-linejoin:round;">
<path d="M44000 25500
L70000 25500
" />
<path d="M37000 44000
L40500 44000
" />
<path d="M36000 43000
L40500 43000
" />
<path d="M35000 30000
L35000 42000
" />
</g>
<g style="fill:#000000; fill-opacity:0.0; 
stroke:#000000; stroke-width:60; stroke-opacity:1; 
stroke-linecap:round; stroke-linejoin:round;">
<path d="M66640 41870
L66640 41370
L66760 41370
L66830 41400
L66880 41440
L66910 41490
L66930 41590
L66930 41660
L66910 41750
L66880 41800
L66830 41850
L66760 41870
L66640 41870
" />
<path d="M67120 41730
L67360 41730
" />
<path d="M67070 41870
L67240 41370
L67410 41870
" />
<path d="M67500 41370
L67790 41370
" />
<path d="M67640 41870
L67640 41370
" />
<path d="M66930 39820
L66910 39850
L66830 39870
L66790 39870
L66720 39850
L66670 39800
L66640 39750
L66620 39660
L66620 39590
L66640 39490
L66670 39440
L66720 39400
L66790 39370
L66830 39370
L66910 39400
L66930 39420
" />
<path d="M67380 39870
L67140 39870
L67140 39370
" />
<path d="M67550 39870
L67550 39370
" />
<path d="M67830 39870
L67620 39590
" />
<path d="M67830 39370
L67550 39660
" />
<path d="M66640 35870
L66640 35370
L66830 35370
L66880 35400
L66910 35420
L66930 35470
L66930 35540
L66910 35590
L66880 35610
L66830 35630
L66640 35630
" />
<path d="M67430 35870
L67260 35630
" />
<path d="M67140 35870
L67140 35370
L67330 35370
L67380 35400
L67410 35420
L67430 35470
L67430 35540
L67410 35590
L67380 35610
L67330 35630
L67140 35630
" />
<path d="M67910 35400
L67860 35370
L67790 35370
L67720 35400
L67670 35440
L67640 35490
L67620 35590
L67620 35660
L67640 35750
L67670 35800
L67720 35850
L67790 35870
L67830 35870
L67910 35850
L67930 35820
L67930 35660
L67830 35660
" />
<path d="M46140 25370
L46140 24870
L46330 24870
L46380 24900
L46410 24920
L46430 24970
L46430 25040
L46410 25090
L46380 25110
L46330 25130
L46140 25130
" />
<path d="M46930 25370
L46760 25130
" />
<path d="M46640 25370
L46640 24870
L46830 24870
L46880 24900
L46910 24920
L46930 24970
L46930 25040
L46910 25090
L46880 25110
L46830 25130
L46640 25130
" />
<path d="M47410 24900
L47360 24870
L47290 24870
L47220 24900
L47170 24940
L47140 24990
L47120 25090
L47120 25160
L47140 25250
L47170 25300
L47220 25350
L47290 25370
L47330 25370
L47410 25350
L47430 25320
L47430 25160
L47330 25160
" />
<path d="M47640 25370
L47640 24870
L47810 25230
L47980 24870
L47980 25370
" />
<path d="M66640 27180
L67030 27180
" />
<path d="M66830 27370
L66830 26990
" />
<path d="M67530 27370
L67240 27370
" />
<path d="M67380 27370
L67380 26870
L67330 26940
L67290 26990
L67240 27010
" />
<path d="M67720 26920
L67740 26900
L67790 26870
L67910 26870
L67950 26900
L67980 26920
L68000 26970
L68000 27010
L67980 27090
L67690 27370
L68000 27370
" />
<path d="M68140 26870
L68310 27370
L68480 26870
" />
<path d="M38140 43870
L38140 43370
L38310 43730
L38480 43370
L38480 43870
" />
<path d="M38720 43870
L38720 43370
" />
<path d="M38930 43850
L39000 43870
L39120 43870
L39170 43850
L39190 43820
L39220 43780
L39220 43730
L39190 43680
L39170 43660
L39120 43630
L39030 43610
L38980 43590
L38950 43560
L38930 43510
L38930 43470
L38950 43420
L38980 43400
L39030 43370
L39140 43370
L39220 43400
" />
<path d="M39530 43370
L39620 43370
L39670 43400
L39720 43440
L39740 43540
L39740 43700
L39720 43800
L39670 43850
L39620 43870
L39530 43870
L39480 43850
L39430 43800
L39410 43700
L39410 43540
L39430 43440
L39480 43400
L39530 43370
" />
<path d="M38120 42850
L38190 42870
L38310 42870
L38360 42850
L38380 42820
L38410 42780
L38410 42730
L38380 42680
L38360 42660
L38310 42630
L38220 42610
L38170 42590
L38140 42560
L38120 42510
L38120 42470
L38140 42420
L38170 42400
L38220 42370
L38330 42370
L38410 42400
" />
<path d="M38910 42820
L38880 42850
L38810 42870
L38760 42870
L38690 42850
L38640 42800
L38620 42750
L38600 42660
L38600 42590
L38620 42490
L38640 42440
L38690 42400
L38760 42370
L38810 42370
L38880 42400
L38910 42420
" />
<path d="M39120 42870
L39120 42370
" />
<path d="M39410 42870
L39190 42590
" />
<path d="M39410 42370
L39120 42660
" />
<path d="M38430 41870
L38260 41630
" />
<path d="M38140 41870
L38140 41370
L38330 41370
L38380 41400
L38410 41420
L38430 41470
L38430 41540
L38410 41590
L38380 41610
L38330 41630
L38140 41630
" />
<path d="M38620 41850
L38690 41870
L38810 41870
L38860 41850
L38880 41820
L38910 41780
L38910 41730
L38880 41680
L38860 41660
L38810 41630
L38720 41610
L38670 41590
L38640 41560
L38620 41510
L38620 41470
L38640 41420
L38670 41400
L38720 41370
L38830 41370
L38910 41400
" />
<path d="M39050 41370
L39330 41370
" />
<path d="M39190 41870
L39190 41370
" />
<path d="M38140 39870
L38140 39370
L38310 39730
L38480 39370
L38480 39870
" />
<path d="M38810 39370
L38910 39370
L38950 39400
L39000 39440
L39030 39540
L39030 39700
L39000 39800
L38950 39850
L38910 39870
L38810 39870
L38760 39850
L38720 39800
L38690 39700
L38690 39540
L38720 39440
L38760 39400
L38810 39370
" />
<path d="M39220 39850
L39290 39870
L39410 39870
L39450 39850
L39480 39820
L39500 39780
L39500 39730
L39480 39680
L39450 39660
L39410 39630
L39310 39610
L39260 39590
L39240 39560
L39220 39510
L39220 39470
L39240 39420
L39260 39400
L39310 39370
L39430 39370
L39500 39400
" />
<path d="M39720 39870
L39720 39370
" />
</g>
<g style="fill:#008400; fill-opacity:0.0; 
stroke:#008400; stroke-width:60; stroke-opacity:1; 
stroke-linecap:round; stroke-linejoin:round;">
<path d="M44000 25500
L44000 29000
" />
</g>
<g style="fill:#000000; fill-opacity:0.0; 
stroke:#000000; stroke-width:60; stroke-opacity:1; 
stroke-linecap:round; stroke-linejoin:round;">
<path d="M67410 25900
L67360 25870
L67290 25870
L67220 25900
L67170 25940
L67140 25990
L67120 26090
L67120 26160
L67140 26250
L67170 26300
L67220 26350
L67290 26370
L67330 26370
L67410 26350
L67430 26320
L67430 26160
L67330 26160
" />
<path d="M67640 26370
L67640 25870
L67930 26370
L67930 25870
" />
<path d="M68170 26370
L68170 25870
L68290 25870
L68360 25900
L68410 25940
L68430 25990
L68450 26090
L68450 26160
L68430 26250
L68410 26300
L68360 26350
L68290 26370
L68170 26370
" />
<path d="M67070 24870
L67240 25370
L67410 24870
" />
<path d="M67570 25370
L67570 25040
" />
<path d="M67570 24870
L67550 24900
L67570 24920
L67600 24900
L67570 24870
L67570 24920
" />
<path d="M67810 25040
L67810 25370
" />
<path d="M67810 25090
L67830 25060
L67880 25040
L67950 25040
L68000 25060
L68030 25110
L68030 25370
" />
</g>
<g style="fill:#000084; fill-opacity:0.0; 
stroke:#000084; stroke-width:60; stroke-opacity:1; 
stroke-linecap:round; stroke-linejoin:round;">
<path d="M67760 37760
L68240 38240
" />
<path d="M68240 37760
L67760 38240
" />
</g>
<g style="fill:#000084; fill-opacity:0.0; 
stroke:#000084; stroke-width:0; stroke-opacity:1; 
stroke-linecap:round; stroke-linejoin:round;">
</g>
<g style="fill:#840000; fill-opacity:0.0; 
stroke:#840000; stroke-width:0; stroke-opacity:1; 
stroke-linecap:round; stroke-linejoin:round;">
</g>
<g style="fill:#840000; fill-opacity:1.0; 
stroke:#840000; stroke-width:60; stroke-opacity:1; 
stroke-linecap:round; stroke-linejoin:round;">
<rect x="69660" y="37950" width="340" height="100" rx="0" />
</g>
<g style="fill:#840000; fill-opacity:0.0; 
stroke:#840000; stroke-width:60; stroke-opacity:1; 
stroke-linecap:round; stroke-linejoin:round;">
<polyline fill="none;"
points="69500,38000
69660,38000
" /> 
<path d="M69500 38000
L68000 38000
" />
<path d="M68890 37870
L68600 37870
" />
<path d="M68750 37870
L68750 37370
L68700 37440
L68650 37490
L68600 37510
" />
</g>
<g style="fill:#008484; fill-opacity:0.0; 
stroke:#008484; stroke-width:60; stroke-opacity:1; 
stroke-linecap:round; stroke-linejoin:round;">
<path d="M70560 36990
L70560 37350
L70540 37420
L70490 37470
L70420 37490
L70370 37490
" />
<path d="M71060 37490
L70780 37490
" />
<path d="M70920 37490
L70920 36990
L70870 37060
L70820 37110
L70780 37130
" />
<path d="M71280 37300
L71660 37300
" />
<path d="M71870 37040
L71890 37020
L71940 36990
L72060 36990
L72110 37020
L72130 37040
L72160 37090
L72160 37130
L72130 37210
L71850 37490
L72160 37490
" />
<path d="M70420 38400
L70420 37900
L70710 38400
L70710 37900
" />
<path d="M71230 38350
L71210 38380
L71140 38400
L71090 38400
L71020 38380
L70970 38330
L70950 38280
L70920 38190
L70920 38120
L70950 38020
L70970 37970
L71020 37930
L71090 37900
L71140 37900
L71210 37930
L71230 37950
" />
</g>
<g style="fill:#000084; fill-opacity:0.0; 
stroke:#000084; stroke-width:60; stroke-opacity:1; 
stroke-linecap:round; stroke-linejoin:round;">
<path d="M65260 24260
L65740 24740
" />
<path d="M65740 24260
L65260 24740
" />
</g>
<g style="fill:#008400; fill-opacity:0.0; 
stroke:#008400; stroke-width:60; stroke-opacity:1; 
stroke-linecap:round; stroke-linejoin:round;">
<path d="M70000 24500
L65500 24500
" />
</g>
<g style="fill:#000000; fill-opacity:0.0; 
stroke:#000000; stroke-width:60; stroke-opacity:1; 
stroke-linecap:round; stroke-linejoin:round;">
<path d="M67070 23920
L67170 23850
L67260 23920
" />
<path d="M67410 24350
L67480 24370
L67600 24370
L67640 24350
L67670 24320
L67690 24280
L67690 24230
L67670 24180
L67640 24160
L67600 24130
L67500 24110
L67450 24090
L67430 24060
L67410 24010
L67410 23970
L67430 23920
L67450 23900
L67500 23870
L67620 23870
L67690 23900
" />
<path d="M67910 24370
L67910 23870
" />
<path d="M67910 24110
L68190 24110
" />
<path d="M68190 24370
L68190 23870
" />
<path d="M68430 24370
L68430 23870
L68550 23870
L68620 23900
L68670 23940
L68690 23990
L68720 24090
L68720 24160
L68690 24250
L68670 24300
L68620 24350
L68550 24370
L68430 24370
" />
<path d="M68930 24370
L68930 23870
L69220 24370
L69220 23870
" />
</g>
<g style="fill:#008400; fill-opacity:0.0; 
stroke:#008400; stroke-width:60; stroke-opacity:1; 
stroke-linecap:round; stroke-linejoin:round;">
<path d="M45500 40000
L50000 40000
" />
<path d="M46000 44000
L53500 44000
" />
</g>
<g style="fill:#000000; fill-opacity:0.0; 
stroke:#000000; stroke-width:60; stroke-opacity:1; 
stroke-linecap:round; stroke-linejoin:round;">
<path d="M47380 39370
L47140 39370
L47120 39610
L47140 39590
L47190 39560
L47310 39560
L47360 39590
L47380 39610
L47410 39660
L47410 39780
L47380 39820
L47360 39850
L47310 39870
L47190 39870
L47140 39850
L47120 39820
" />
<path d="M47550 39370
L47720 39870
L47880 39370
" />
<path d="M47410 43400
L47360 43370
L47290 43370
L47220 43400
L47170 43440
L47140 43490
L47120 43590
L47120 43660
L47140 43750
L47170 43800
L47220 43850
L47290 43870
L47330 43870
L47410 43850
L47430 43820
L47430 43660
L47330 43660
" />
<path d="M47640 43870
L47640 43370
L47930 43870
L47930 43370
" />
<path d="M48170 43870
L48170 43370
L48290 43370
L48360 43400
L48410 43440
L48430 43490
L48450 43590
L48450 43660
L48430 43750
L48410 43800
L48360 43850
L48290 43870
L48170 43870
" />
<path d="M66640 45870
L66640 45370
L66830 45370
L66880 45400
L66910 45420
L66930 45470
L66930 45540
L66910 45590
L66880 45610
L66830 45630
L66640 45630
" />
<path d="M67100 45370
L67220 45870
L67310 45510
L67410 45870
L67530 45370
" />
<path d="M68000 45870
L67830 45630
" />
<path d="M67720 45870
L67720 45370
L67910 45370
L67950 45400
L67980 45420
L68000 45470
L68000 45540
L67980 45590
L67950 45610
L67910 45630
L67720 45630
" />
</g>
<g style="fill:#000000; fill-opacity:0.0; 
stroke:#000000; stroke-width:0; stroke-opacity:1; 
stroke-linecap:round; stroke-linejoin:round;">
</g>
<g style="fill:#840000; fill-opacity:0.0; 
stroke:#840000; stroke-width:0; stroke-opacity:1; 
stroke-linecap:round; stroke-linejoin:round;">
</g>
<g style="fill:#840000; fill-opacity:1.0; 
stroke:#840000; stroke-width:60; stroke-opacity:1; 
stroke-linecap:round; stroke-linejoin:round;">
<rect x="69660" y="45950" width="340" height="100" rx="0" />
</g>
<g style="fill:#840000; fill-opacity:0.0; 
stroke:#840000; stroke-width:60; stroke-opacity:1; 
stroke-linecap:round; stroke-linejoin:round;">
<polyline fill="none;"
points="69500,46000
69660,46000
" /> 
<path d="M69500 46000
L68000 46000
" />
<path d="M68890 45870
L68600 45870
" />
<path d="M68750 45870
L68750 45370
L68700 45440
L68650 45490
L68600 45510
" />
</g>
<g style="fill:#008484; fill-opacity:0.0; 
stroke:#008484; stroke-width:60; stroke-opacity:1; 
stroke-linecap:round; stroke-linejoin:round;">
<path d="M70560 44990
L70560 45350
L70540 45420
L70490 45470
L70420 45490
L70370 45490
" />
<path d="M71060 45490
L70780 45490
" />
<path d="M70920 45490
L70920 44990
L70870 45060
L70820 45110
L70780 45130
" />
<path d="M71280 45300
L71660 45300
" />
<path d="M72110 44990
L72010 44990
L71970 45020
L71940 45040
L71890 45110
L71870 45210
L71870 45400
L71890 45440
L71920 45470
L71970 45490
L72060 45490
L72110 45470
L72130 45440
L72160 45400
L72160 45280
L72130 45230
L72110 45210
L72060 45180
L71970 45180
L71920 45210
L71890 45230
L71870 45280
" />
<path d="M70420 46400
L70420 45900
L70610 45900
L70660 45930
L70680 45950
L70700 46000
L70700 46070
L70680 46120
L70660 46140
L70610 46160
L70420 46160
" />
<path d="M70870 45900
L70990 46400
L71090 46040
L71180 46400
L71300 45900
" />
<path d="M71780 46400
L71610 46160
" />
<path d="M71490 46400
L71490 45900
L71680 45900
L71730 45930
L71750 45950
L71780 46000
L71780 46070
L71750 46120
L71730 46140
L71680 46160
L71490 46160
" />
</g>
<g style="fill:#000000; fill-opacity:0.0; 
stroke:#000000; stroke-width:60; stroke-opacity:1; 
stroke-linecap:round; stroke-linejoin:round;">
<path d="M66910 43400
L66860 43370
L66790 43370
L66720 43400
L66670 43440
L66640 43490
L66620 43590
L66620 43660
L66640 43750
L66670 43800
L66720 43850
L66790 43870
L66830 43870
L66910 43850
L66930 43820
L66930 43660
L66830 43660
" />
<path d="M67140 43870
L67140 43370
L67430 43870
L67430 43370
" />
<path d="M67670 43870
L67670 43370
L67790 43370
L67860 43400
L67910 43440
L67930 43490
L67950 43590
L67950 43660
L67930 43750
L67910 43800
L67860 43850
L67790 43870
L67670 43870
" />
</g>
<g style="fill:#008400; fill-opacity:0.0; 
stroke:#008400; stroke-width:60; stroke-opacity:1; 
stroke-linecap:round; stroke-linejoin:round;">
<path d="M68000 44000
L53500 44000
" />
</g>
<g style="fill:#008400; fill-opacity:0.0; 
stroke:#008400; stroke-width:0; stroke-opacity:1; 
stroke-linecap:round; stroke-linejoin:round;">
</g>
<g style="fill:#008400; fill-opacity:1.0; 
stroke:#008400; stroke-width:100; stroke-opacity:1; 
stroke-linecap:round; stroke-linejoin:round;">
<circle cx="53500" cy="44000" r="200" /> 
</g>
<g style="fill:#008400; fill-opacity:1.0; 
stroke:#008400; stroke-width:60; stroke-opacity:1; 
stroke-linecap:round; stroke-linejoin:round;">
</g>
<g style="fill:#008400; fill-opacity:0.0; 
stroke:#008400; stroke-width:60; stroke-opacity:1; 
stroke-linecap:round; stroke-linejoin:round;">
<path d="M41500 30000
L41500 29000
" />
<path d="M41500 29000
L44000 29000
" />
</g>
<g style="fill:#008400; fill-opacity:0.0; 
stroke:#008400; stroke-width:0; stroke-opacity:1; 
stroke-linecap:round; stroke-linejoin:round;">
</g>
<g style="fill:#008400; fill-opacity:1.0; 
stroke:#008400; stroke-width:100; stroke-opacity:1; 
stroke-linecap:round; stroke-linejoin:round;">
<circle cx="41500" cy="30000" r="200" /> 
</g>
<g style="fill:#008400; fill-opacity:1.0; 
stroke:#008400; stroke-width:0; stroke-opacity:1; 
stroke-linecap:round; stroke-linejoin:round;">
</g>
<g style="fill:#008400; fill-opacity:1.0; 
stroke:#008400; stroke-width:100; stroke-opacity:1; 
stroke-linecap:round; stroke-linejoin:round;">
<circle cx="44000" cy="29000" r="200" /> 
</g> 
</svg>
