<?xml version="1.0" encoding="UTF-8" standalone="no"?>
<!DOCTYPE svg PUBLIC "-//W3C//DTD SVG 1.1//EN" "http://www.w3.org/Graphics/SVG/1.1/DTD/svg11.dtd">
<svg width="100%" height="100%" viewBox="0 0 300 192" version="1.1" xmlns="http://www.w3.org/2000/svg" xmlns:xlink="http://www.w3.org/1999/xlink" xml:space="preserve" xmlns:serif="http://www.serif.com/" style="fill-rule:evenodd;clip-rule:evenodd;stroke-linecap:round;stroke-linejoin:round;">
    <g id="Artboard1" transform="matrix(0.80429,0,0,0.743611,-160.858,-94.4386)">
        <rect x="200" y="127" width="373" height="258.2" style="fill:none;"/>
        <g transform="matrix(1.24333,0,0,1.34479,-93.4267,-82.7872)">
            <rect x="501.552" y="316.44" width="2.448" height="0.72" style="fill:rgb(132,0,0);stroke:rgb(132,0,0);stroke-width:0.43px;"/>
        </g>
        <g transform="matrix(1.24333,0,0,1.34479,-93.4267,-82.7872)">
            <path d="M500.4,316.8L501.552,316.8" style="fill:none;stroke:rgb(132,0,0);stroke-width:0.43px;"/>
            <path d="M500.4,316.8L489.6,316.8" style="fill:rgb(132,0,0);fill-opacity:0;fill-rule:nonzero;stroke:rgb(132,0,0);stroke-width:0.43px;"/>
            <path d="M496.008,315.864L493.92,315.864" style="fill:rgb(132,0,0);fill-opacity:0;fill-rule:nonzero;stroke:rgb(132,0,0);stroke-width:0.43px;"/>
            <path d="M495,315.864L495,312.264L494.64,312.768L494.28,313.128L493.92,313.272" style="fill:rgb(132,0,0);fill-opacity:0;fill-rule:nonzero;stroke:rgb(132,0,0);stroke-width:0.43px;"/>
        </g>
        <g transform="matrix(1.24333,0,0,1.34479,-93.4267,-82.7872)">
            <path d="M508.032,309.528L508.032,312.12L507.888,312.624L507.528,312.984L507.024,313.128L506.664,313.128" style="fill:rgb(0,132,132);fill-opacity:0;fill-rule:nonzero;stroke:rgb(0,132,132);stroke-width:0.43px;"/>
            <path d="M511.632,313.128L509.616,313.128" style="fill:rgb(0,132,132);fill-opacity:0;fill-rule:nonzero;stroke:rgb(0,132,132);stroke-width:0.43px;"/>
            <path d="M510.624,313.128L510.624,309.528L510.264,310.032L509.904,310.392L509.616,310.536" style="fill:rgb(0,132,132);fill-opacity:0;fill-rule:nonzero;stroke:rgb(0,132,132);stroke-width:0.43px;"/>
            <path d="M513.216,311.76L515.952,311.76" style="fill:rgb(0,132,132);fill-opacity:0;fill-rule:nonzero;stroke:rgb(0,132,132);stroke-width:0.43px;"/>
            <path d="M519.336,309.528L517.608,309.528L517.464,311.256L517.608,311.112L517.968,310.896L518.832,310.896L519.192,311.112L519.336,311.256L519.552,311.616L519.552,312.48L519.336,312.768L519.192,312.984L518.832,313.128L517.968,313.128L517.608,312.984L517.464,312.768" style="fill:rgb(0,132,132);fill-opacity:0;fill-rule:nonzero;stroke:rgb(0,132,132);stroke-width:0.43px;"/>
            <path d="M508.896,316.296L508.608,316.08L508.104,316.08L507.528,316.296L507.24,316.584L507.024,316.944L506.88,317.664L506.88,318.168L507.024,318.816L507.24,319.176L507.528,319.536L508.104,319.68L508.392,319.68L508.896,319.536L509.112,319.32L509.112,318.168L508.392,318.168" style="fill:rgb(0,132,132);fill-opacity:0;fill-rule:nonzero;stroke:rgb(0,132,132);stroke-width:0.43px;"/>
            <path d="M510.624,319.68L510.624,316.08L512.712,319.68L512.712,316.08" style="fill:rgb(0,132,132);fill-opacity:0;fill-rule:nonzero;stroke:rgb(0,132,132);stroke-width:0.43px;"/>
            <path d="M514.44,319.68L514.44,316.08L515.304,316.08L515.808,316.296L516.096,316.584L516.312,316.944L516.456,317.664L516.456,318.168L516.312,318.816L516.096,319.176L515.808,319.536L515.304,319.68L514.44,319.68" style="fill:rgb(0,132,132);fill-opacity:0;fill-rule:nonzero;stroke:rgb(0,132,132);stroke-width:0.43px;"/>
        </g>
        <g transform="matrix(1.24333,0,0,1.34479,-93.4267,-82.7872)">
            <rect x="501.552" y="302.04" width="2.448" height="0.72" style="fill:rgb(132,0,0);stroke:rgb(132,0,0);stroke-width:0.43px;"/>
        </g>
        <g transform="matrix(1.24333,0,0,1.34479,-93.4267,-82.7872)">
            <path d="M500.4,302.4L501.552,302.4" style="fill:none;stroke:rgb(132,0,0);stroke-width:0.43px;"/>
            <path d="M500.4,302.4L489.6,302.4" style="fill:rgb(132,0,0);fill-opacity:0;fill-rule:nonzero;stroke:rgb(132,0,0);stroke-width:0.43px;"/>
            <path d="M496.008,301.464L493.92,301.464" style="fill:rgb(132,0,0);fill-opacity:0;fill-rule:nonzero;stroke:rgb(132,0,0);stroke-width:0.43px;"/>
            <path d="M495,301.464L495,297.864L494.64,298.368L494.28,298.728L493.92,298.872" style="fill:rgb(132,0,0);fill-opacity:0;fill-rule:nonzero;stroke:rgb(132,0,0);stroke-width:0.43px;"/>
        </g>
        <g transform="matrix(1.24333,0,0,1.34479,-93.4267,-82.7872)">
            <path d="M508.032,295.128L508.032,297.72L507.888,298.224L507.528,298.584L507.024,298.728L506.664,298.728" style="fill:rgb(0,132,132);fill-opacity:0;fill-rule:nonzero;stroke:rgb(0,132,132);stroke-width:0.43px;"/>
            <path d="M511.632,298.728L509.616,298.728" style="fill:rgb(0,132,132);fill-opacity:0;fill-rule:nonzero;stroke:rgb(0,132,132);stroke-width:0.43px;"/>
            <path d="M510.624,298.728L510.624,295.128L510.264,295.632L509.904,295.992L509.616,296.136" style="fill:rgb(0,132,132);fill-opacity:0;fill-rule:nonzero;stroke:rgb(0,132,132);stroke-width:0.43px;"/>
            <path d="M513.216,297.36L515.952,297.36" style="fill:rgb(0,132,132);fill-opacity:0;fill-rule:nonzero;stroke:rgb(0,132,132);stroke-width:0.43px;"/>
            <path d="M519.192,296.352L519.192,298.728" style="fill:rgb(0,132,132);fill-opacity:0;fill-rule:nonzero;stroke:rgb(0,132,132);stroke-width:0.43px;"/>
            <path d="M518.328,294.984L517.464,297.504L519.696,297.504" style="fill:rgb(0,132,132);fill-opacity:0;fill-rule:nonzero;stroke:rgb(0,132,132);stroke-width:0.43px;"/>
            <path d="M507.024,305.28L507.024,301.68L507.888,301.68L508.392,301.896L508.752,302.184L508.896,302.544L509.112,303.264L509.112,303.768L508.896,304.416L508.752,304.776L508.392,305.136L507.888,305.28L507.024,305.28" style="fill:rgb(0,132,132);fill-opacity:0;fill-rule:nonzero;stroke:rgb(0,132,132);stroke-width:0.43px;"/>
            <path d="M510.48,304.272L512.136,304.272" style="fill:rgb(0,132,132);fill-opacity:0;fill-rule:nonzero;stroke:rgb(0,132,132);stroke-width:0.43px;"/>
            <path d="M510.12,305.28L511.272,301.68L512.496,305.28" style="fill:rgb(0,132,132);fill-opacity:0;fill-rule:nonzero;stroke:rgb(0,132,132);stroke-width:0.43px;"/>
            <path d="M513.216,301.68L515.232,301.68" style="fill:rgb(0,132,132);fill-opacity:0;fill-rule:nonzero;stroke:rgb(0,132,132);stroke-width:0.43px;"/>
            <path d="M514.224,305.28L514.224,301.68" style="fill:rgb(0,132,132);fill-opacity:0;fill-rule:nonzero;stroke:rgb(0,132,132);stroke-width:0.43px;"/>
        </g>
        <g transform="matrix(1.24333,0,0,1.34479,-93.4267,-82.7872)">
            <rect x="501.552" y="287.64" width="2.448" height="0.72" style="fill:rgb(132,0,0);stroke:rgb(132,0,0);stroke-width:0.43px;"/>
        </g>
        <g transform="matrix(1.24333,0,0,1.34479,-93.4267,-82.7872)">
            <path d="M500.4,288L501.552,288" style="fill:none;stroke:rgb(132,0,0);stroke-width:0.43px;"/>
            <path d="M500.4,288L489.6,288" style="fill:rgb(132,0,0);fill-opacity:0;fill-rule:nonzero;stroke:rgb(132,0,0);stroke-width:0.43px;"/>
            <path d="M496.008,287.064L493.92,287.064" style="fill:rgb(132,0,0);fill-opacity:0;fill-rule:nonzero;stroke:rgb(132,0,0);stroke-width:0.43px;"/>
            <path d="M495,287.064L495,283.464L494.64,283.968L494.28,284.328L493.92,284.472" style="fill:rgb(132,0,0);fill-opacity:0;fill-rule:nonzero;stroke:rgb(132,0,0);stroke-width:0.43px;"/>
        </g>
        <g transform="matrix(1.24333,0,0,1.34479,-93.4267,-82.7872)">
            <path d="M508.032,280.728L508.032,283.32L507.888,283.824L507.528,284.184L507.024,284.328L506.664,284.328" style="fill:rgb(0,132,132);fill-opacity:0;fill-rule:nonzero;stroke:rgb(0,132,132);stroke-width:0.43px;"/>
            <path d="M511.632,284.328L509.616,284.328" style="fill:rgb(0,132,132);fill-opacity:0;fill-rule:nonzero;stroke:rgb(0,132,132);stroke-width:0.43px;"/>
            <path d="M510.624,284.328L510.624,280.728L510.264,281.232L509.904,281.592L509.616,281.736" style="fill:rgb(0,132,132);fill-opacity:0;fill-rule:nonzero;stroke:rgb(0,132,132);stroke-width:0.43px;"/>
            <path d="M513.216,282.96L515.952,282.96" style="fill:rgb(0,132,132);fill-opacity:0;fill-rule:nonzero;stroke:rgb(0,132,132);stroke-width:0.43px;"/>
            <path d="M517.32,280.728L519.552,280.728L518.328,282.096L518.832,282.096L519.192,282.312L519.336,282.456L519.552,282.816L519.552,283.68L519.336,283.968L519.192,284.184L518.832,284.328L517.824,284.328L517.464,284.184L517.32,283.968" style="fill:rgb(0,132,132);fill-opacity:0;fill-rule:nonzero;stroke:rgb(0,132,132);stroke-width:0.43px;"/>
            <path d="M509.112,290.52L508.896,290.736L508.392,290.88L508.032,290.88L507.528,290.736L507.24,290.376L507.024,290.016L506.88,289.368L506.88,288.864L507.024,288.144L507.24,287.784L507.528,287.496L508.032,287.28L508.392,287.28L508.896,287.496L509.112,287.64" style="fill:rgb(0,132,132);fill-opacity:0;fill-rule:nonzero;stroke:rgb(0,132,132);stroke-width:0.43px;"/>
            <path d="M512.352,290.88L510.624,290.88L510.624,287.28" style="fill:rgb(0,132,132);fill-opacity:0;fill-rule:nonzero;stroke:rgb(0,132,132);stroke-width:0.43px;"/>
            <path d="M513.576,290.88L513.576,287.28" style="fill:rgb(0,132,132);fill-opacity:0;fill-rule:nonzero;stroke:rgb(0,132,132);stroke-width:0.43px;"/>
            <path d="M515.592,290.88L514.08,288.864" style="fill:rgb(0,132,132);fill-opacity:0;fill-rule:nonzero;stroke:rgb(0,132,132);stroke-width:0.43px;"/>
            <path d="M515.592,287.28L513.576,289.368" style="fill:rgb(0,132,132);fill-opacity:0;fill-rule:nonzero;stroke:rgb(0,132,132);stroke-width:0.43px;"/>
        </g>
        <g transform="matrix(1.24333,0,0,1.34479,-93.4267,-82.7872)">
            <rect x="501.552" y="258.84" width="2.448" height="0.72" style="fill:rgb(132,0,0);stroke:rgb(132,0,0);stroke-width:0.43px;"/>
        </g>
        <g transform="matrix(1.24333,0,0,1.34479,-93.4267,-82.7872)">
            <path d="M500.4,259.2L501.552,259.2" style="fill:none;stroke:rgb(132,0,0);stroke-width:0.43px;"/>
            <path d="M500.4,259.2L489.6,259.2" style="fill:rgb(132,0,0);fill-opacity:0;fill-rule:nonzero;stroke:rgb(132,0,0);stroke-width:0.43px;"/>
            <path d="M496.008,258.264L493.92,258.264" style="fill:rgb(132,0,0);fill-opacity:0;fill-rule:nonzero;stroke:rgb(132,0,0);stroke-width:0.43px;"/>
            <path d="M495,258.264L495,254.664L494.64,255.168L494.28,255.528L493.92,255.672" style="fill:rgb(132,0,0);fill-opacity:0;fill-rule:nonzero;stroke:rgb(132,0,0);stroke-width:0.43px;"/>
        </g>
        <g transform="matrix(1.24333,0,0,1.34479,-93.4267,-82.7872)">
            <path d="M508.032,251.928L508.032,254.52L507.888,255.024L507.528,255.384L507.024,255.528L506.664,255.528" style="fill:rgb(0,132,132);fill-opacity:0;fill-rule:nonzero;stroke:rgb(0,132,132);stroke-width:0.43px;"/>
            <path d="M511.632,255.528L509.616,255.528" style="fill:rgb(0,132,132);fill-opacity:0;fill-rule:nonzero;stroke:rgb(0,132,132);stroke-width:0.43px;"/>
            <path d="M510.624,255.528L510.624,251.928L510.264,252.432L509.904,252.792L509.616,252.936" style="fill:rgb(0,132,132);fill-opacity:0;fill-rule:nonzero;stroke:rgb(0,132,132);stroke-width:0.43px;"/>
            <path d="M513.216,254.16L515.952,254.16" style="fill:rgb(0,132,132);fill-opacity:0;fill-rule:nonzero;stroke:rgb(0,132,132);stroke-width:0.43px;"/>
            <path d="M519.552,255.528L517.464,255.528" style="fill:rgb(0,132,132);fill-opacity:0;fill-rule:nonzero;stroke:rgb(0,132,132);stroke-width:0.43px;"/>
            <path d="M518.472,255.528L518.472,251.928L518.184,252.432L517.824,252.792L517.464,252.936" style="fill:rgb(0,132,132);fill-opacity:0;fill-rule:nonzero;stroke:rgb(0,132,132);stroke-width:0.43px;"/>
            <path d="M507.024,262.08L507.024,258.48L508.392,258.48L508.752,258.696L508.968,258.84L509.112,259.2L509.112,259.704L508.968,260.064L508.752,260.208L508.392,260.352L507.024,260.352" style="fill:rgb(0,132,132);fill-opacity:0;fill-rule:nonzero;stroke:rgb(0,132,132);stroke-width:0.43px;"/>
            <path d="M512.712,262.08L511.488,260.352" style="fill:rgb(0,132,132);fill-opacity:0;fill-rule:nonzero;stroke:rgb(0,132,132);stroke-width:0.43px;"/>
            <path d="M510.624,262.08L510.624,258.48L511.992,258.48L512.352,258.696L512.568,258.84L512.712,259.2L512.712,259.704L512.568,260.064L512.352,260.208L511.992,260.352L510.624,260.352" style="fill:rgb(0,132,132);fill-opacity:0;fill-rule:nonzero;stroke:rgb(0,132,132);stroke-width:0.43px;"/>
            <path d="M516.168,258.696L515.808,258.48L515.304,258.48L514.8,258.696L514.44,258.984L514.224,259.344L514.08,260.064L514.08,260.568L514.224,261.216L514.44,261.576L514.8,261.936L515.304,262.08L515.592,262.08L516.168,261.936L516.312,261.72L516.312,260.568L515.592,260.568" style="fill:rgb(0,132,132);fill-opacity:0;fill-rule:nonzero;stroke:rgb(0,132,132);stroke-width:0.43px;"/>
        </g>
        <g transform="matrix(1.24333,0,0,1.34479,-93.4267,-82.7872)">
            <rect x="515.952" y="176.04" width="2.448" height="0.72" style="fill:rgb(132,0,0);stroke:rgb(132,0,0);stroke-width:0.43px;"/>
            <rect x="515.952" y="183.24" width="2.448" height="0.72" style="fill:rgb(132,0,0);stroke:rgb(132,0,0);stroke-width:0.43px;"/>
            <rect x="515.952" y="190.44" width="2.448" height="0.72" style="fill:rgb(132,0,0);stroke:rgb(132,0,0);stroke-width:0.43px;"/>
            <rect x="515.952" y="197.64" width="2.448" height="0.72" style="fill:rgb(132,0,0);stroke:rgb(132,0,0);stroke-width:0.43px;"/>
        </g>
        <g transform="matrix(1.24333,0,0,1.34479,-93.4267,-82.7872)">
            <path d="M514.8,176.4L515.952,176.4" style="fill:none;stroke:rgb(132,0,0);stroke-width:0.43px;"/>
            <path d="M514.8,183.6L515.952,183.6" style="fill:none;stroke:rgb(132,0,0);stroke-width:0.43px;"/>
            <path d="M514.8,190.8L515.952,190.8" style="fill:none;stroke:rgb(132,0,0);stroke-width:0.43px;"/>
            <path d="M514.8,198L515.952,198" style="fill:none;stroke:rgb(132,0,0);stroke-width:0.43px;"/>
            <path d="M514.8,198L504,198" style="fill:rgb(132,0,0);fill-opacity:0;fill-rule:nonzero;stroke:rgb(132,0,0);stroke-width:0.43px;"/>
            <path d="M510.408,197.064L508.32,197.064" style="fill:rgb(132,0,0);fill-opacity:0;fill-rule:nonzero;stroke:rgb(132,0,0);stroke-width:0.43px;"/>
            <path d="M509.4,197.064L509.4,193.464L509.04,193.968L508.68,194.328L508.32,194.472" style="fill:rgb(132,0,0);fill-opacity:0;fill-rule:nonzero;stroke:rgb(132,0,0);stroke-width:0.43px;"/>
            <path d="M514.8,190.8L504,190.8" style="fill:rgb(132,0,0);fill-opacity:0;fill-rule:nonzero;stroke:rgb(132,0,0);stroke-width:0.43px;"/>
            <path d="M508.32,186.624L508.536,186.48L508.824,186.264L509.688,186.264L510.048,186.48L510.192,186.624L510.408,186.984L510.408,187.272L510.192,187.848L508.176,189.864L510.408,189.864" style="fill:rgb(132,0,0);fill-opacity:0;fill-rule:nonzero;stroke:rgb(132,0,0);stroke-width:0.43px;"/>
            <path d="M514.8,183.6L504,183.6" style="fill:rgb(132,0,0);fill-opacity:0;fill-rule:nonzero;stroke:rgb(132,0,0);stroke-width:0.43px;"/>
            <path d="M508.176,179.064L510.408,179.064L509.184,180.432L509.688,180.432L510.048,180.648L510.192,180.792L510.408,181.152L510.408,182.016L510.192,182.304L510.048,182.52L509.688,182.664L508.68,182.664L508.32,182.52L508.176,182.304" style="fill:rgb(132,0,0);fill-opacity:0;fill-rule:nonzero;stroke:rgb(132,0,0);stroke-width:0.43px;"/>
            <path d="M514.8,176.4L504,176.4" style="fill:rgb(132,0,0);fill-opacity:0;fill-rule:nonzero;stroke:rgb(132,0,0);stroke-width:0.43px;"/>
            <path d="M510.048,173.088L510.048,175.464" style="fill:rgb(132,0,0);fill-opacity:0;fill-rule:nonzero;stroke:rgb(132,0,0);stroke-width:0.43px;"/>
            <path d="M509.184,171.72L508.32,174.24L510.552,174.24" style="fill:rgb(132,0,0);fill-opacity:0;fill-rule:nonzero;stroke:rgb(132,0,0);stroke-width:0.43px;"/>
        </g>
        <g transform="matrix(1.24333,0,0,1.34479,-93.4267,-82.7872)">
            <path d="M511.848,205.344L514.44,205.344L514.944,205.56L515.304,205.848L515.448,206.352L515.448,206.712" style="fill:rgb(0,132,132);fill-opacity:0;fill-rule:nonzero;stroke:rgb(0,132,132);stroke-width:0.43px;"/>
            <path d="M511.848,203.976L511.848,201.744L513.216,202.968L513.216,202.464L513.432,202.104L513.576,201.96L513.936,201.744L514.8,201.744L515.088,201.96L515.304,202.104L515.448,202.464L515.448,203.472L515.304,203.832L515.088,203.976" style="fill:rgb(0,132,132);fill-opacity:0;fill-rule:nonzero;stroke:rgb(0,132,132);stroke-width:0.43px;"/>
            <path d="M523.224,199.008L523.368,198.504L523.368,197.64L523.224,197.28L523.008,197.136L522.72,196.92L522.36,196.92L522,197.136L521.856,197.28L521.64,197.64L521.496,198.288L521.352,198.648L521.136,198.792L520.776,199.008L520.488,199.008L520.128,198.792L519.984,198.648L519.768,198.288L519.768,197.424L519.984,196.92" style="fill:rgb(0,132,132);fill-opacity:0;fill-rule:nonzero;stroke:rgb(0,132,132);stroke-width:0.43px;"/>
            <path d="M523.368,193.536L523.368,195.552" style="fill:rgb(0,132,132);fill-opacity:0;fill-rule:nonzero;stroke:rgb(0,132,132);stroke-width:0.43px;"/>
            <path d="M523.368,194.544L519.768,194.544L520.272,194.904L520.632,195.192L520.776,195.552" style="fill:rgb(0,132,132);fill-opacity:0;fill-rule:nonzero;stroke:rgb(0,132,132);stroke-width:0.43px;"/>
            <path d="M519.768,191.304L519.768,190.944L519.984,190.584L520.128,190.44L520.488,190.224L521.136,190.08L522,190.08L522.72,190.224L523.008,190.44L523.224,190.584L523.368,190.944L523.368,191.304L523.224,191.592L523.008,191.808L522.72,191.952L522,192.096L521.136,192.096L520.488,191.952L520.128,191.808L519.984,191.592L519.768,191.304" style="fill:rgb(0,132,132);fill-opacity:0;fill-rule:nonzero;stroke:rgb(0,132,132);stroke-width:0.43px;"/>
            <path d="M519.768,189.072L523.368,187.848L519.768,186.624" style="fill:rgb(0,132,132);fill-opacity:0;fill-rule:nonzero;stroke:rgb(0,132,132);stroke-width:0.43px;"/>
            <path d="M520.128,185.616L519.984,185.472L519.768,185.112L519.768,184.248L519.984,183.888L520.128,183.744L520.488,183.528L520.776,183.528L521.352,183.744L523.368,185.76L523.368,183.528" style="fill:rgb(0,132,132);fill-opacity:0;fill-rule:nonzero;stroke:rgb(0,132,132);stroke-width:0.43px;"/>
            <path d="M521.496,180.792L521.496,182.016" style="fill:rgb(0,132,132);fill-opacity:0;fill-rule:nonzero;stroke:rgb(0,132,132);stroke-width:0.43px;"/>
            <path d="M523.368,182.016L519.768,182.016L519.768,180.288" style="fill:rgb(0,132,132);fill-opacity:0;fill-rule:nonzero;stroke:rgb(0,132,132);stroke-width:0.43px;"/>
            <path d="M523.368,177.048L523.368,179.136" style="fill:rgb(0,132,132);fill-opacity:0;fill-rule:nonzero;stroke:rgb(0,132,132);stroke-width:0.43px;"/>
            <path d="M523.368,178.056L519.768,178.056L520.272,178.416L520.632,178.776L520.776,179.136" style="fill:rgb(0,132,132);fill-opacity:0;fill-rule:nonzero;stroke:rgb(0,132,132);stroke-width:0.43px;"/>
            <path d="M520.128,175.68L519.984,175.536L519.768,175.176L519.768,174.312L519.984,173.952L520.128,173.808L520.488,173.592L520.776,173.592L521.352,173.808L523.368,175.824L523.368,173.592" style="fill:rgb(0,132,132);fill-opacity:0;fill-rule:nonzero;stroke:rgb(0,132,132);stroke-width:0.43px;"/>
        </g>
        <g transform="matrix(1.24333,0,0,1.34479,-93.4267,-82.7872)">
            <rect x="357.12" y="295.2" width="5.76" height="14.4" style="fill:rgb(132,0,0);fill-opacity:0;stroke:rgb(132,0,0);stroke-width:0.72px;"/>
        </g>
        <g transform="matrix(1.24333,0,0,1.34479,-93.4267,-82.7872)">
            <path d="M360,309.6L360,313.2" style="fill:rgb(132,0,0);fill-opacity:0;fill-rule:nonzero;stroke:rgb(132,0,0);stroke-width:0.43px;"/>
            <path d="M360,295.2L360,291.6" style="fill:rgb(132,0,0);fill-opacity:0;fill-rule:nonzero;stroke:rgb(132,0,0);stroke-width:0.43px;"/>
        </g>
        <g transform="matrix(1.24333,0,0,1.34479,-93.4267,-82.7872)">
            <path d="M368.136,300.456L366.984,298.728" style="fill:rgb(0,132,132);fill-opacity:0;fill-rule:nonzero;stroke:rgb(0,132,132);stroke-width:0.43px;"/>
            <path d="M366.12,300.456L366.12,296.856L367.488,296.856L367.776,297.072L367.992,297.216L368.136,297.576L368.136,298.08L367.992,298.44L367.776,298.584L367.488,298.728L366.12,298.728" style="fill:rgb(0,132,132);fill-opacity:0;fill-rule:nonzero;stroke:rgb(0,132,132);stroke-width:0.43px;"/>
            <path d="M371.592,300.456L369.504,300.456" style="fill:rgb(0,132,132);fill-opacity:0;fill-rule:nonzero;stroke:rgb(0,132,132);stroke-width:0.43px;"/>
            <path d="M370.584,300.456L370.584,296.856L370.224,297.36L369.864,297.72L369.504,297.864" style="fill:rgb(0,132,132);fill-opacity:0;fill-rule:nonzero;stroke:rgb(0,132,132);stroke-width:0.43px;"/>
            <path d="M365.904,303.768L366.048,303.624L366.408,303.408L367.272,303.408L367.56,303.624L367.776,303.768L367.92,304.128L367.92,304.416L367.776,304.992L365.688,307.008L367.92,307.008" style="fill:rgb(0,132,132);fill-opacity:0;fill-rule:nonzero;stroke:rgb(0,132,132);stroke-width:0.43px;"/>
            <path d="M369.288,303.768L369.504,303.624L369.792,303.408L370.656,303.408L371.016,303.624L371.16,303.768L371.376,304.128L371.376,304.416L371.16,304.992L369.144,307.008L371.376,307.008" style="fill:rgb(0,132,132);fill-opacity:0;fill-rule:nonzero;stroke:rgb(0,132,132);stroke-width:0.43px;"/>
            <path d="M373.608,303.408L373.968,303.408L374.256,303.624L374.472,303.768L374.616,304.128L374.76,304.776L374.76,305.64L374.616,306.36L374.472,306.648L374.256,306.864L373.968,307.008L373.608,307.008L373.248,306.864L373.104,306.648L372.888,306.36L372.744,305.64L372.744,304.776L372.888,304.128L373.104,303.768L373.248,303.624L373.608,303.408" style="fill:rgb(0,132,132);fill-opacity:0;fill-rule:nonzero;stroke:rgb(0,132,132);stroke-width:0.43px;"/>
            <path d="M378.36,307.008L377.208,305.28" style="fill:rgb(0,132,132);fill-opacity:0;fill-rule:nonzero;stroke:rgb(0,132,132);stroke-width:0.43px;"/>
            <path d="M376.344,307.008L376.344,303.408L377.712,303.408L378.072,303.624L378.216,303.768L378.36,304.128L378.36,304.632L378.216,304.992L378.072,305.136L377.712,305.28L376.344,305.28" style="fill:rgb(0,132,132);fill-opacity:0;fill-rule:nonzero;stroke:rgb(0,132,132);stroke-width:0.43px;"/>
        </g>
        <g transform="matrix(1.24333,0,0,1.34479,-93.4267,-82.7872)">
            <circle cx="424.8" cy="230.4" r="0.72" style="fill:rgb(132,0,0);fill-opacity:0;stroke:rgb(132,0,0);stroke-width:0.36px;"/>
            <circle cx="432" cy="230.4" r="0.72" style="fill:rgb(132,0,0);fill-opacity:0;stroke:rgb(132,0,0);stroke-width:0.36px;"/>
            <path d="M414,244.8L442.8,244.8" style="fill:none;stroke:rgb(132,0,0);stroke-width:0.36px;"/>
            <path d="M414,237.6L414,244.8" style="fill:none;stroke:rgb(132,0,0);stroke-width:0.36px;"/>
            <path d="M414,223.2L414,237.6" style="fill:none;stroke:rgb(132,0,0);stroke-width:0.36px;"/>
            <path d="M414,223.2L417.6,223.2" style="fill:none;stroke:rgb(132,0,0);stroke-width:0.36px;"/>
            <path d="M414,216L414,223.2" style="fill:none;stroke:rgb(132,0,0);stroke-width:0.36px;"/>
            <path d="M414,216L442.8,216" style="fill:none;stroke:rgb(132,0,0);stroke-width:0.36px;"/>
            <path d="M417.6,237.6L414,237.6" style="fill:none;stroke:rgb(132,0,0);stroke-width:0.36px;"/>
            <path d="M417.6,230.4L417.6,237.6" style="fill:none;stroke:rgb(132,0,0);stroke-width:0.36px;"/>
            <path d="M417.6,230.4L424.8,230.4" style="fill:none;stroke:rgb(132,0,0);stroke-width:0.36px;"/>
            <path d="M417.6,223.2L417.6,230.4" style="fill:none;stroke:rgb(132,0,0);stroke-width:0.36px;"/>
            <path d="M424.8,230.4L432,226.8" style="fill:none;stroke:rgb(132,0,0);stroke-width:0.36px;"/>
            <path d="M432,230.4L439.2,230.4" style="fill:none;stroke:rgb(132,0,0);stroke-width:0.36px;"/>
            <path d="M439.2,237.6L442.8,237.6" style="fill:none;stroke:rgb(132,0,0);stroke-width:0.36px;"/>
            <path d="M439.2,230.4L439.2,237.6" style="fill:none;stroke:rgb(132,0,0);stroke-width:0.36px;"/>
            <path d="M439.2,230.4L439.2,223.2" style="fill:none;stroke:rgb(132,0,0);stroke-width:0.36px;"/>
            <path d="M439.2,223.2L442.8,223.2" style="fill:none;stroke:rgb(132,0,0);stroke-width:0.36px;"/>
            <path d="M442.8,237.6L442.8,244.8" style="fill:none;stroke:rgb(132,0,0);stroke-width:0.36px;"/>
            <path d="M442.8,223.2L442.8,237.6" style="fill:none;stroke:rgb(132,0,0);stroke-width:0.36px;"/>
            <path d="M442.8,216L442.8,223.2" style="fill:none;stroke:rgb(132,0,0);stroke-width:0.36px;"/>
        </g>
        <g transform="matrix(1.24333,0,0,1.34479,-93.4267,-82.7872)">
            <path d="M414,223.2L399.6,223.2" style="fill:rgb(132,0,0);fill-opacity:0;fill-rule:nonzero;stroke:rgb(132,0,0);stroke-width:0.43px;"/>
            <path d="M407.592,222.336L405.936,222.336" style="fill:rgb(132,0,0);fill-opacity:0;fill-rule:nonzero;stroke:rgb(132,0,0);stroke-width:0.43px;"/>
            <path d="M406.8,222.336L406.8,219.456L406.512,219.816L406.224,220.104L405.936,220.248" style="fill:rgb(132,0,0);fill-opacity:0;fill-rule:nonzero;stroke:rgb(132,0,0);stroke-width:0.43px;"/>
            <path d="M414,237.6L399.6,237.6" style="fill:rgb(132,0,0);fill-opacity:0;fill-rule:nonzero;stroke:rgb(132,0,0);stroke-width:0.43px;"/>
            <path d="M405.936,234.072L406.08,234L406.368,233.856L407.016,233.856L407.448,234.072L407.592,234.36L407.592,234.648L407.448,235.08L405.792,236.736L407.592,236.736" style="fill:rgb(132,0,0);fill-opacity:0;fill-rule:nonzero;stroke:rgb(132,0,0);stroke-width:0.43px;"/>
            <path d="M442.8,223.2L457.2,223.2" style="fill:rgb(132,0,0);fill-opacity:0;fill-rule:nonzero;stroke:rgb(132,0,0);stroke-width:0.43px;"/>
            <path d="M448.992,219.456L450.792,219.456L449.856,220.536L450.216,220.536L450.504,220.68L450.648,220.824L450.792,221.04L450.792,221.76L450.648,222.048L450.504,222.192L450.216,222.336L449.424,222.336L449.136,222.192L448.992,222.048" style="fill:rgb(132,0,0);fill-opacity:0;fill-rule:nonzero;stroke:rgb(132,0,0);stroke-width:0.43px;"/>
            <path d="M442.8,237.6L457.2,237.6" style="fill:rgb(132,0,0);fill-opacity:0;fill-rule:nonzero;stroke:rgb(132,0,0);stroke-width:0.43px;"/>
            <path d="M450.504,234.792L450.504,236.736" style="fill:rgb(132,0,0);fill-opacity:0;fill-rule:nonzero;stroke:rgb(132,0,0);stroke-width:0.43px;"/>
            <path d="M449.856,233.712L449.136,235.728L450.936,235.728" style="fill:rgb(132,0,0);fill-opacity:0;fill-rule:nonzero;stroke:rgb(132,0,0);stroke-width:0.43px;"/>
        </g>
        <g transform="matrix(1.24333,0,0,1.34479,-93.4267,-82.7872)">
            <path d="M423.576,205.704L424.08,205.848L424.944,205.848L425.304,205.704L425.448,205.488L425.592,205.2L425.592,204.84L425.448,204.48L425.304,204.336L424.944,204.12L424.224,203.976L423.936,203.832L423.72,203.616L423.576,203.256L423.576,202.968L423.72,202.608L423.936,202.464L424.224,202.248L425.088,202.248L425.592,202.464" style="fill:rgb(0,132,132);fill-opacity:0;fill-rule:nonzero;stroke:rgb(0,132,132);stroke-width:0.43px;"/>
            <path d="M426.816,202.248L427.68,205.848L428.4,203.256L429.048,205.848L429.912,202.248" style="fill:rgb(0,132,132);fill-opacity:0;fill-rule:nonzero;stroke:rgb(0,132,132);stroke-width:0.43px;"/>
            <path d="M433.152,205.848L431.136,205.848" style="fill:rgb(0,132,132);fill-opacity:0;fill-rule:nonzero;stroke:rgb(0,132,132);stroke-width:0.43px;"/>
            <path d="M432.144,205.848L432.144,202.248L431.784,202.752L431.424,203.112L431.136,203.256" style="fill:rgb(0,132,132);fill-opacity:0;fill-rule:nonzero;stroke:rgb(0,132,132);stroke-width:0.43px;"/>
            <path d="M410.976,210.024L412.344,210.024" style="fill:rgb(0,132,132);fill-opacity:0;fill-rule:nonzero;stroke:rgb(0,132,132);stroke-width:0.43px;"/>
            <path d="M411.48,208.8L411.48,211.896L411.624,212.256L411.984,212.4L412.344,212.4" style="fill:rgb(0,132,132);fill-opacity:0;fill-rule:nonzero;stroke:rgb(0,132,132);stroke-width:0.43px;"/>
            <path d="M414.072,212.4L413.712,212.256L413.568,212.04L413.352,211.752L413.352,210.672L413.568,210.384L413.712,210.168L414.072,210.024L414.576,210.024L414.936,210.168L415.08,210.384L415.224,210.672L415.224,211.752L415.08,212.04L414.936,212.256L414.576,212.4L414.072,212.4" style="fill:rgb(0,132,132);fill-opacity:0;fill-rule:nonzero;stroke:rgb(0,132,132);stroke-width:0.43px;"/>
            <path d="M418.32,210.024L418.32,212.904L418.176,213.264L417.96,213.408L417.672,213.624L417.168,213.624L416.808,213.408" style="fill:rgb(0,132,132);fill-opacity:0;fill-rule:nonzero;stroke:rgb(0,132,132);stroke-width:0.43px;"/>
            <path d="M418.32,212.256L417.96,212.4L417.312,212.4L416.952,212.256L416.808,212.04L416.592,211.752L416.592,210.672L416.808,210.384L416.952,210.168L417.312,210.024L417.96,210.024L418.32,210.168" style="fill:rgb(0,132,132);fill-opacity:0;fill-rule:nonzero;stroke:rgb(0,132,132);stroke-width:0.43px;"/>
            <path d="M421.56,210.024L421.56,212.904L421.416,213.264L421.272,213.408L420.912,213.624L420.408,213.624L420.048,213.408" style="fill:rgb(0,132,132);fill-opacity:0;fill-rule:nonzero;stroke:rgb(0,132,132);stroke-width:0.43px;"/>
            <path d="M421.56,212.256L421.272,212.4L420.552,212.4L420.192,212.256L420.048,212.04L419.904,211.752L419.904,210.672L420.048,210.384L420.192,210.168L420.552,210.024L421.272,210.024L421.56,210.168" style="fill:rgb(0,132,132);fill-opacity:0;fill-rule:nonzero;stroke:rgb(0,132,132);stroke-width:0.43px;"/>
            <path d="M423.792,212.4L423.504,212.256L423.288,211.896L423.288,208.8" style="fill:rgb(0,132,132);fill-opacity:0;fill-rule:nonzero;stroke:rgb(0,132,132);stroke-width:0.43px;"/>
            <path d="M426.6,212.256L426.24,212.4L425.52,212.4L425.16,212.256L425.016,211.896L425.016,210.528L425.16,210.168L425.52,210.024L426.24,210.024L426.6,210.168L426.744,210.528L426.744,210.888L425.016,211.176" style="fill:rgb(0,132,132);fill-opacity:0;fill-rule:nonzero;stroke:rgb(0,132,132);stroke-width:0.43px;"/>
            <path d="M428.256,211.032L430.992,211.032" style="fill:rgb(0,132,132);fill-opacity:0;fill-rule:nonzero;stroke:rgb(0,132,132);stroke-width:0.43px;"/>
            <path d="M432.576,212.256L432.936,212.4L433.584,212.4L433.944,212.256L434.088,211.896L434.088,211.752L433.944,211.392L433.584,211.176L433.08,211.176L432.72,211.032L432.576,210.672L432.576,210.528L432.72,210.168L433.08,210.024L433.584,210.024L433.944,210.168" style="fill:rgb(0,132,132);fill-opacity:0;fill-rule:nonzero;stroke:rgb(0,132,132);stroke-width:0.43px;"/>
            <path d="M436.176,212.4L435.816,212.256L435.672,211.896L435.672,208.8" style="fill:rgb(0,132,132);fill-opacity:0;fill-rule:nonzero;stroke:rgb(0,132,132);stroke-width:0.43px;"/>
            <path d="M438.912,212.256L438.552,212.4L437.904,212.4L437.544,212.256L437.4,211.896L437.4,210.528L437.544,210.168L437.904,210.024L438.552,210.024L438.912,210.168L439.056,210.528L439.056,210.888L437.4,211.176" style="fill:rgb(0,132,132);fill-opacity:0;fill-rule:nonzero;stroke:rgb(0,132,132);stroke-width:0.43px;"/>
            <path d="M442.008,212.256L441.648,212.4L441,212.4L440.64,212.256L440.424,211.896L440.424,210.528L440.64,210.168L441,210.024L441.648,210.024L442.008,210.168L442.152,210.528L442.152,210.888L440.424,211.176" style="fill:rgb(0,132,132);fill-opacity:0;fill-rule:nonzero;stroke:rgb(0,132,132);stroke-width:0.43px;"/>
            <path d="M443.736,210.024L443.736,213.624" style="fill:rgb(0,132,132);fill-opacity:0;fill-rule:nonzero;stroke:rgb(0,132,132);stroke-width:0.43px;"/>
            <path d="M443.736,210.168L444.024,210.024L444.744,210.024L445.104,210.168L445.248,210.384L445.392,210.672L445.392,211.752L445.248,212.04L445.104,212.256L444.744,212.4L444.024,212.4L443.736,212.256" style="fill:rgb(0,132,132);fill-opacity:0;fill-rule:nonzero;stroke:rgb(0,132,132);stroke-width:0.43px;"/>
        </g>
        <g transform="matrix(1.24333,0,0,1.34479,-93.4267,-82.7872)">
            <rect x="472.32" y="205.2" width="5.76" height="14.4" style="fill:rgb(132,0,0);fill-opacity:0;stroke:rgb(132,0,0);stroke-width:0.72px;"/>
        </g>
        <g transform="matrix(1.24333,0,0,1.34479,-93.4267,-82.7872)">
            <path d="M475.2,219.6L475.2,223.2" style="fill:rgb(132,0,0);fill-opacity:0;fill-rule:nonzero;stroke:rgb(132,0,0);stroke-width:0.43px;"/>
            <path d="M475.2,205.2L475.2,201.6" style="fill:rgb(132,0,0);fill-opacity:0;fill-rule:nonzero;stroke:rgb(132,0,0);stroke-width:0.43px;"/>
        </g>
        <g transform="matrix(1.24333,0,0,1.34479,-93.4267,-82.7872)">
            <path d="M483.336,210.456L482.184,208.728" style="fill:rgb(0,132,132);fill-opacity:0;fill-rule:nonzero;stroke:rgb(0,132,132);stroke-width:0.43px;"/>
            <path d="M481.32,210.456L481.32,206.856L482.688,206.856L482.976,207.072L483.192,207.216L483.336,207.576L483.336,208.08L483.192,208.44L482.976,208.584L482.688,208.728L481.32,208.728" style="fill:rgb(0,132,132);fill-opacity:0;fill-rule:nonzero;stroke:rgb(0,132,132);stroke-width:0.43px;"/>
            <path d="M484.704,207.216L484.92,207.072L485.208,206.856L486.072,206.856L486.432,207.072L486.576,207.216L486.792,207.576L486.792,207.864L486.576,208.44L484.56,210.456L486.792,210.456" style="fill:rgb(0,132,132);fill-opacity:0;fill-rule:nonzero;stroke:rgb(0,132,132);stroke-width:0.43px;"/>
            <path d="M483.192,217.008L481.104,217.008" style="fill:rgb(0,132,132);fill-opacity:0;fill-rule:nonzero;stroke:rgb(0,132,132);stroke-width:0.43px;"/>
            <path d="M482.184,217.008L482.184,213.408L481.824,213.912L481.464,214.272L481.104,214.416" style="fill:rgb(0,132,132);fill-opacity:0;fill-rule:nonzero;stroke:rgb(0,132,132);stroke-width:0.43px;"/>
            <path d="M484.704,217.008L484.704,213.408" style="fill:rgb(0,132,132);fill-opacity:0;fill-rule:nonzero;stroke:rgb(0,132,132);stroke-width:0.43px;"/>
            <path d="M486.792,217.008L485.208,214.992" style="fill:rgb(0,132,132);fill-opacity:0;fill-rule:nonzero;stroke:rgb(0,132,132);stroke-width:0.43px;"/>
            <path d="M486.792,213.408L484.704,215.496" style="fill:rgb(0,132,132);fill-opacity:0;fill-rule:nonzero;stroke:rgb(0,132,132);stroke-width:0.43px;"/>
        </g>
        <g transform="matrix(1.24333,0,0,1.34479,-93.4267,-82.7872)">
            <path d="M385.2,316.8L385.2,230.4" style="fill:rgb(0,132,0);fill-opacity:0;fill-rule:nonzero;stroke:rgb(0,132,0);stroke-width:0.43px;"/>
            <path d="M385.2,190.8L504,190.8" style="fill:rgb(0,132,0);fill-opacity:0;fill-rule:nonzero;stroke:rgb(0,132,0);stroke-width:0.43px;"/>
            <path d="M457.2,237.6L460.8,237.6" style="fill:rgb(0,132,0);fill-opacity:0;fill-rule:nonzero;stroke:rgb(0,132,0);stroke-width:0.43px;"/>
            <path d="M460.8,223.2L457.2,223.2" style="fill:rgb(0,132,0);fill-opacity:0;fill-rule:nonzero;stroke:rgb(0,132,0);stroke-width:0.43px;"/>
            <path d="M475.2,248.4L475.2,259.2" style="fill:rgb(0,132,0);fill-opacity:0;fill-rule:nonzero;stroke:rgb(0,132,0);stroke-width:0.43px;"/>
            <path d="M475.2,259.2L489.6,259.2" style="fill:rgb(0,132,0);fill-opacity:0;fill-rule:nonzero;stroke:rgb(0,132,0);stroke-width:0.43px;"/>
            <path d="M504,198L475.2,198" style="fill:rgb(0,132,0);fill-opacity:0;fill-rule:nonzero;stroke:rgb(0,132,0);stroke-width:0.43px;"/>
            <path d="M475.2,201.6L475.2,198" style="fill:rgb(0,132,0);fill-opacity:0;fill-rule:nonzero;stroke:rgb(0,132,0);stroke-width:0.43px;"/>
            <path d="M399.6,223.2L396,223.2" style="fill:rgb(0,132,0);fill-opacity:0;fill-rule:nonzero;stroke:rgb(0,132,0);stroke-width:0.43px;"/>
            <path d="M396,223.2L396,230.4" style="fill:rgb(0,132,0);fill-opacity:0;fill-rule:nonzero;stroke:rgb(0,132,0);stroke-width:0.43px;"/>
            <path d="M396,237.6L399.6,237.6" style="fill:rgb(0,132,0);fill-opacity:0;fill-rule:nonzero;stroke:rgb(0,132,0);stroke-width:0.43px;"/>
            <path d="M396,230.4L385.2,230.4" style="fill:rgb(0,132,0);fill-opacity:0;fill-rule:nonzero;stroke:rgb(0,132,0);stroke-width:0.43px;"/>
        </g>
        <g transform="matrix(1.24333,0,0,1.34479,-93.4267,-82.7872)">
            <circle cx="396" cy="230.4" r="1.44" style="fill:rgb(0,132,0);stroke:rgb(0,132,0);stroke-width:0.72px;"/>
        </g>
        <g transform="matrix(1.24333,0,0,1.34479,-93.4267,-82.7872)">
            <path d="M396,230.4L396,237.6" style="fill:rgb(0,132,0);fill-opacity:0;fill-rule:nonzero;stroke:rgb(0,132,0);stroke-width:0.43px;"/>
        </g>
        <g transform="matrix(1.24333,0,0,1.34479,-93.4267,-82.7872)">
            <circle cx="385.2" cy="230.4" r="1.44" style="fill:rgb(0,132,0);stroke:rgb(0,132,0);stroke-width:0.72px;"/>
        </g>
        <g transform="matrix(1.24333,0,0,1.34479,-93.4267,-82.7872)">
            <path d="M385.2,230.4L385.2,190.8" style="fill:rgb(0,132,0);fill-opacity:0;fill-rule:nonzero;stroke:rgb(0,132,0);stroke-width:0.43px;"/>
            <path d="M360,331.2L489.6,331.2" style="fill:rgb(0,132,0);fill-opacity:0;fill-rule:nonzero;stroke:rgb(0,132,0);stroke-width:0.43px;"/>
        </g>
        <g transform="matrix(1.24333,0,0,1.34479,-93.4267,-82.7872)">
            <rect x="302.4" y="284.4" width="14.4" height="36" style="fill:rgb(255,255,194);fill-opacity:0.6;"/>
        </g>
        <g transform="matrix(1.24333,0,0,1.34479,-93.4267,-82.7872)">
            <rect x="302.4" y="284.4" width="14.4" height="36" style="fill:rgb(132,0,0);fill-opacity:0;stroke:rgb(132,0,0);stroke-width:0.72px;"/>
        </g>
        <g transform="matrix(1.24333,0,0,1.34479,-93.4267,-82.7872)">
            <rect x="302.4" y="316.44" width="3.6" height="0.72" style="fill:rgb(132,0,0);fill-opacity:0;stroke:rgb(132,0,0);stroke-width:0.43px;"/>
            <rect x="302.4" y="309.24" width="3.6" height="0.72" style="fill:rgb(132,0,0);fill-opacity:0;stroke:rgb(132,0,0);stroke-width:0.43px;"/>
            <rect x="302.4" y="302.04" width="3.6" height="0.72" style="fill:rgb(132,0,0);fill-opacity:0;stroke:rgb(132,0,0);stroke-width:0.43px;"/>
            <rect x="302.4" y="294.84" width="3.6" height="0.72" style="fill:rgb(132,0,0);fill-opacity:0;stroke:rgb(132,0,0);stroke-width:0.43px;"/>
            <rect x="302.4" y="287.64" width="3.6" height="0.72" style="fill:rgb(132,0,0);fill-opacity:0;stroke:rgb(132,0,0);stroke-width:0.43px;"/>
            <rect x="313.2" y="316.44" width="3.6" height="0.72" style="fill:rgb(132,0,0);fill-opacity:0;stroke:rgb(132,0,0);stroke-width:0.43px;"/>
            <rect x="313.2" y="309.24" width="3.6" height="0.72" style="fill:rgb(132,0,0);fill-opacity:0;stroke:rgb(132,0,0);stroke-width:0.43px;"/>
            <rect x="313.2" y="302.04" width="3.6" height="0.72" style="fill:rgb(132,0,0);fill-opacity:0;stroke:rgb(132,0,0);stroke-width:0.43px;"/>
            <rect x="313.2" y="294.84" width="3.6" height="0.72" style="fill:rgb(132,0,0);fill-opacity:0;stroke:rgb(132,0,0);stroke-width:0.43px;"/>
            <rect x="313.2" y="287.64" width="3.6" height="0.72" style="fill:rgb(132,0,0);fill-opacity:0;stroke:rgb(132,0,0);stroke-width:0.43px;"/>
            <path d="M302.4,288L291.6,288" style="fill:rgb(132,0,0);fill-opacity:0;fill-rule:nonzero;stroke:rgb(132,0,0);stroke-width:0.43px;"/>
            <path d="M298.008,287.064L295.92,287.064" style="fill:rgb(132,0,0);fill-opacity:0;fill-rule:nonzero;stroke:rgb(132,0,0);stroke-width:0.43px;"/>
            <path d="M297,287.064L297,283.464L296.64,283.968L296.28,284.328L295.92,284.472" style="fill:rgb(132,0,0);fill-opacity:0;fill-rule:nonzero;stroke:rgb(132,0,0);stroke-width:0.43px;"/>
            <path d="M316.8,316.8L327.6,316.8" style="fill:rgb(132,0,0);fill-opacity:0;fill-rule:nonzero;stroke:rgb(132,0,0);stroke-width:0.43px;"/>
            <path d="M321.48,315.864L319.392,315.864" style="fill:rgb(132,0,0);fill-opacity:0;fill-rule:nonzero;stroke:rgb(132,0,0);stroke-width:0.43px;"/>
            <path d="M320.472,315.864L320.472,312.264L320.112,312.768L319.752,313.128L319.392,313.272" style="fill:rgb(132,0,0);fill-opacity:0;fill-rule:nonzero;stroke:rgb(132,0,0);stroke-width:0.43px;"/>
            <path d="M323.712,312.264L324.072,312.264L324.36,312.48L324.576,312.624L324.72,312.984L324.936,313.632L324.936,314.496L324.72,315.216L324.576,315.504L324.36,315.72L324.072,315.864L323.712,315.864L323.352,315.72L323.208,315.504L322.992,315.216L322.848,314.496L322.848,313.632L322.992,312.984L323.208,312.624L323.352,312.48L323.712,312.264" style="fill:rgb(132,0,0);fill-opacity:0;fill-rule:nonzero;stroke:rgb(132,0,0);stroke-width:0.43px;"/>
            <path d="M316.8,288L327.6,288" style="fill:rgb(132,0,0);fill-opacity:0;fill-rule:nonzero;stroke:rgb(132,0,0);stroke-width:0.43px;"/>
            <path d="M321.12,283.824L321.336,283.68L321.624,283.464L322.488,283.464L322.848,283.68L322.992,283.824L323.208,284.184L323.208,284.472L322.992,285.048L320.976,287.064L323.208,287.064" style="fill:rgb(132,0,0);fill-opacity:0;fill-rule:nonzero;stroke:rgb(132,0,0);stroke-width:0.43px;"/>
            <path d="M302.4,295.2L291.6,295.2" style="fill:rgb(132,0,0);fill-opacity:0;fill-rule:nonzero;stroke:rgb(132,0,0);stroke-width:0.43px;"/>
            <path d="M295.776,290.664L298.008,290.664L296.784,292.032L297.288,292.032L297.648,292.248L297.792,292.392L298.008,292.752L298.008,293.616L297.792,293.904L297.648,294.12L297.288,294.264L296.28,294.264L295.92,294.12L295.776,293.904" style="fill:rgb(132,0,0);fill-opacity:0;fill-rule:nonzero;stroke:rgb(132,0,0);stroke-width:0.43px;"/>
            <path d="M316.8,295.2L327.6,295.2" style="fill:rgb(132,0,0);fill-opacity:0;fill-rule:nonzero;stroke:rgb(132,0,0);stroke-width:0.43px;"/>
            <path d="M322.848,291.888L322.848,294.264" style="fill:rgb(132,0,0);fill-opacity:0;fill-rule:nonzero;stroke:rgb(132,0,0);stroke-width:0.43px;"/>
            <path d="M321.984,290.52L321.12,293.04L323.352,293.04" style="fill:rgb(132,0,0);fill-opacity:0;fill-rule:nonzero;stroke:rgb(132,0,0);stroke-width:0.43px;"/>
            <path d="M302.4,302.4L291.6,302.4" style="fill:rgb(132,0,0);fill-opacity:0;fill-rule:nonzero;stroke:rgb(132,0,0);stroke-width:0.43px;"/>
            <path d="M297.792,297.864L296.136,297.864L295.92,299.592L296.136,299.448L296.424,299.232L297.288,299.232L297.648,299.448L297.792,299.592L298.008,299.952L298.008,300.816L297.792,301.104L297.648,301.32L297.288,301.464L296.424,301.464L296.136,301.32L295.92,301.104" style="fill:rgb(132,0,0);fill-opacity:0;fill-rule:nonzero;stroke:rgb(132,0,0);stroke-width:0.43px;"/>
            <path d="M316.8,302.4L327.6,302.4" style="fill:rgb(132,0,0);fill-opacity:0;fill-rule:nonzero;stroke:rgb(132,0,0);stroke-width:0.43px;"/>
            <path d="M322.848,297.864L322.2,297.864L321.84,298.08L321.624,298.224L321.336,298.728L321.12,299.448L321.12,300.816L321.336,301.104L321.48,301.32L321.84,301.464L322.488,301.464L322.848,301.32L322.992,301.104L323.208,300.816L323.208,299.952L322.992,299.592L322.848,299.448L322.488,299.232L321.84,299.232L321.48,299.448L321.336,299.592L321.12,299.952" style="fill:rgb(132,0,0);fill-opacity:0;fill-rule:nonzero;stroke:rgb(132,0,0);stroke-width:0.43px;"/>
            <path d="M302.4,309.6L291.6,309.6" style="fill:rgb(132,0,0);fill-opacity:0;fill-rule:nonzero;stroke:rgb(132,0,0);stroke-width:0.43px;"/>
            <path d="M295.776,305.064L298.152,305.064L296.64,308.664" style="fill:rgb(132,0,0);fill-opacity:0;fill-rule:nonzero;stroke:rgb(132,0,0);stroke-width:0.43px;"/>
            <path d="M316.8,309.6L327.6,309.6" style="fill:rgb(132,0,0);fill-opacity:0;fill-rule:nonzero;stroke:rgb(132,0,0);stroke-width:0.43px;"/>
            <path d="M321.84,306.648L321.48,306.432L321.336,306.288L321.12,305.928L321.12,305.784L321.336,305.424L321.48,305.28L321.84,305.064L322.488,305.064L322.848,305.28L322.992,305.424L323.208,305.784L323.208,305.928L322.992,306.288L322.848,306.432L322.488,306.648L321.84,306.648L321.48,306.792L321.336,306.936L321.12,307.296L321.12,308.016L321.336,308.304L321.48,308.52L321.84,308.664L322.488,308.664L322.848,308.52L322.992,308.304L323.208,308.016L323.208,307.296L322.992,306.936L322.848,306.792L322.488,306.648" style="fill:rgb(132,0,0);fill-opacity:0;fill-rule:nonzero;stroke:rgb(132,0,0);stroke-width:0.43px;"/>
            <path d="M302.4,316.8L291.6,316.8" style="fill:rgb(132,0,0);fill-opacity:0;fill-rule:nonzero;stroke:rgb(132,0,0);stroke-width:0.43px;"/>
            <path d="M296.28,315.864L297,315.864L297.288,315.72L297.504,315.504L297.792,315L298.008,314.352L298.008,312.984L297.792,312.624L297.648,312.48L297.288,312.264L296.64,312.264L296.28,312.48L296.136,312.624L295.92,312.984L295.92,313.848L296.136,314.136L296.28,314.352L296.64,314.496L297.288,314.496L297.648,314.352L297.792,314.136L298.008,313.848" style="fill:rgb(132,0,0);fill-opacity:0;fill-rule:nonzero;stroke:rgb(132,0,0);stroke-width:0.43px;"/>
        </g>
        <g transform="matrix(1.24333,0,0,1.34479,-93.4267,-82.7872)">
            <path d="M308.376,270.504L308.376,273.096L308.16,273.6L307.872,273.96L307.368,274.104L307.008,274.104" style="fill:rgb(0,132,132);fill-opacity:0;fill-rule:nonzero;stroke:rgb(0,132,132);stroke-width:0.43px;"/>
            <path d="M309.888,270.864L310.104,270.72L310.392,270.504L311.256,270.504L311.616,270.72L311.76,270.864L311.976,271.224L311.976,271.512L311.76,272.088L309.744,274.104L311.976,274.104" style="fill:rgb(0,132,132);fill-opacity:0;fill-rule:nonzero;stroke:rgb(0,132,132);stroke-width:0.43px;"/>
            <path d="M299.952,277.056L299.952,280.008L300.168,280.296L300.312,280.512L300.672,280.656L301.32,280.656L301.68,280.512L301.824,280.296L302.04,280.008L302.04,277.056" style="fill:rgb(0,132,132);fill-opacity:0;fill-rule:nonzero;stroke:rgb(0,132,132);stroke-width:0.43px;"/>
            <path d="M303.552,280.512L304.056,280.656L304.92,280.656L305.28,280.512L305.424,280.296L305.64,280.008L305.64,279.648L305.424,279.288L305.28,279.144L304.92,278.928L304.272,278.784L303.912,278.64L303.768,278.424L303.552,278.064L303.552,277.776L303.768,277.416L303.912,277.272L304.272,277.056L305.136,277.056L305.64,277.272" style="fill:rgb(0,132,132);fill-opacity:0;fill-rule:nonzero;stroke:rgb(0,132,132);stroke-width:0.43px;"/>
            <path d="M308.376,278.784L308.88,278.928L309.024,279.144L309.24,279.432L309.24,280.008L309.024,280.296L308.88,280.512L308.52,280.656L307.152,280.656L307.152,277.056L308.376,277.056L308.736,277.272L308.88,277.416L309.024,277.776L309.024,278.064L308.88,278.424L308.736,278.64L308.376,278.784L307.152,278.784" style="fill:rgb(0,132,132);fill-opacity:0;fill-rule:nonzero;stroke:rgb(0,132,132);stroke-width:0.43px;"/>
            <path d="M310.608,279.648L312.336,279.648" style="fill:rgb(0,132,132);fill-opacity:0;fill-rule:nonzero;stroke:rgb(0,132,132);stroke-width:0.43px;"/>
            <path d="M310.248,280.656L311.472,277.056L312.624,280.656" style="fill:rgb(0,132,132);fill-opacity:0;fill-rule:nonzero;stroke:rgb(0,132,132);stroke-width:0.43px;"/>
            <path d="M313.704,280.512L314.208,280.656L315.072,280.656L315.36,280.512L315.576,280.296L315.72,280.008L315.72,279.648L315.576,279.288L315.36,279.144L315.072,278.928L314.352,278.784L313.992,278.64L313.848,278.424L313.704,278.064L313.704,277.776L313.848,277.416L313.992,277.272L314.352,277.056L315.216,277.056L315.72,277.272" style="fill:rgb(0,132,132);fill-opacity:0;fill-rule:nonzero;stroke:rgb(0,132,132);stroke-width:0.43px;"/>
            <path d="M317.304,280.656L317.304,277.056L318.672,277.056L318.96,277.272L319.176,277.416L319.32,277.776L319.32,278.28L319.176,278.64L318.96,278.784L318.672,278.928L317.304,278.928" style="fill:rgb(0,132,132);fill-opacity:0;fill-rule:nonzero;stroke:rgb(0,132,132);stroke-width:0.43px;"/>
        </g>
        <g transform="matrix(1.24333,0,0,1.34479,-93.4267,-82.7872)">
            <path d="M327.6,309.6L331.2,309.6" style="fill:rgb(0,132,0);fill-opacity:0;fill-rule:nonzero;stroke:rgb(0,132,0);stroke-width:0.43px;"/>
            <path d="M331.2,309.6L331.2,316.8" style="fill:rgb(0,132,0);fill-opacity:0;fill-rule:nonzero;stroke:rgb(0,132,0);stroke-width:0.43px;"/>
            <path d="M327.6,316.8L331.2,316.8" style="fill:rgb(0,132,0);fill-opacity:0;fill-rule:nonzero;stroke:rgb(0,132,0);stroke-width:0.43px;"/>
        </g>
        <g transform="matrix(1.24333,0,0,1.34479,-93.4267,-82.7872)">
            <circle cx="331.2" cy="316.8" r="1.44" style="fill:rgb(0,132,0);stroke:rgb(0,132,0);stroke-width:0.72px;"/>
        </g>
        <g transform="matrix(1.24333,0,0,1.34479,-93.4267,-82.7872)">
            <path d="M442.8,288L442.8,255.6" style="fill:rgb(0,132,0);fill-opacity:0;fill-rule:nonzero;stroke:rgb(0,132,0);stroke-width:0.43px;"/>
            <path d="M442.8,255.6L259.2,255.6" style="fill:rgb(0,132,0);fill-opacity:0;fill-rule:nonzero;stroke:rgb(0,132,0);stroke-width:0.43px;"/>
            <path d="M259.2,255.6L259.2,309.6" style="fill:rgb(0,132,0);fill-opacity:0;fill-rule:nonzero;stroke:rgb(0,132,0);stroke-width:0.43px;"/>
            <path d="M417.6,266.4L417.6,302.4" style="fill:rgb(0,132,0);fill-opacity:0;fill-rule:nonzero;stroke:rgb(0,132,0);stroke-width:0.43px;"/>
            <path d="M417.6,302.4L489.6,302.4" style="fill:rgb(0,132,0);fill-opacity:0;fill-rule:nonzero;stroke:rgb(0,132,0);stroke-width:0.43px;"/>
            <path d="M442.8,288L489.6,288" style="fill:rgb(0,132,0);fill-opacity:0;fill-rule:nonzero;stroke:rgb(0,132,0);stroke-width:0.43px;"/>
            <path d="M360,313.2L360,331.2" style="fill:rgb(0,132,0);fill-opacity:0;fill-rule:nonzero;stroke:rgb(0,132,0);stroke-width:0.43px;"/>
            <path d="M360,291.6L360,288" style="fill:rgb(0,132,0);fill-opacity:0;fill-rule:nonzero;stroke:rgb(0,132,0);stroke-width:0.43px;"/>
        </g>
        <g transform="matrix(1.24333,0,0,1.34479,-93.4267,-82.7872)">
            <path d="M317.518,219.595C318.392,220.69 319.719,221.328 321.12,221.328C322.518,221.328 323.842,220.692 324.716,219.601" style="fill:rgb(132,0,0);fill-opacity:0;fill-rule:nonzero;stroke:rgb(132,0,0);stroke-width:0.43px;"/>
            <path d="M308.878,219.595C309.752,220.69 311.079,221.328 312.48,221.328C313.878,221.328 315.202,220.692 316.076,219.601" style="fill:rgb(132,0,0);fill-opacity:0;fill-rule:nonzero;stroke:rgb(132,0,0);stroke-width:0.43px;"/>
            <circle cx="325.44" cy="216" r="2.52" style="fill:rgb(132,0,0);fill-opacity:0;stroke:rgb(132,0,0);stroke-width:0.43px;"/>
            <circle cx="316.8" cy="216" r="2.592" style="fill:rgb(132,0,0);fill-opacity:0;stroke:rgb(132,0,0);stroke-width:0.43px;"/>
            <circle cx="308.16" cy="216" r="2.52" style="fill:rgb(132,0,0);fill-opacity:0;stroke:rgb(132,0,0);stroke-width:0.43px;"/>
            <path d="M327.96,216L334.8,216" style="fill:rgb(132,0,0);fill-opacity:0;fill-rule:nonzero;stroke:rgb(132,0,0);stroke-width:0.43px;"/>
            <path d="M332.352,215.064L330.264,215.064" style="fill:rgb(132,0,0);fill-opacity:0;fill-rule:nonzero;stroke:rgb(132,0,0);stroke-width:0.43px;"/>
            <path d="M331.344,215.064L331.344,211.464L330.984,211.968L330.624,212.328L330.264,212.472" style="fill:rgb(132,0,0);fill-opacity:0;fill-rule:nonzero;stroke:rgb(132,0,0);stroke-width:0.43px;"/>
            <path d="M316.8,213.12L316.8,208.8" style="fill:rgb(132,0,0);fill-opacity:0;fill-rule:nonzero;stroke:rgb(132,0,0);stroke-width:0.43px;"/>
            <path d="M312.624,211.968L312.48,211.752L312.264,211.464L312.264,210.6L312.48,210.24L312.624,210.096L312.984,209.88L313.272,209.88L313.848,210.096L315.864,212.112L315.864,209.88" style="fill:rgb(132,0,0);fill-opacity:0;fill-rule:nonzero;stroke:rgb(132,0,0);stroke-width:0.43px;"/>
            <path d="M305.64,216L298.8,216" style="fill:rgb(132,0,0);fill-opacity:0;fill-rule:nonzero;stroke:rgb(132,0,0);stroke-width:0.43px;"/>
            <path d="M300.96,211.464L303.192,211.464L301.968,212.832L302.472,212.832L302.832,213.048L302.976,213.192L303.192,213.552L303.192,214.416L302.976,214.704L302.832,214.92L302.472,215.064L301.464,215.064L301.104,214.92L300.96,214.704" style="fill:rgb(132,0,0);fill-opacity:0;fill-rule:nonzero;stroke:rgb(132,0,0);stroke-width:0.43px;"/>
        </g>
        <g transform="matrix(1.24333,0,0,1.34479,-93.4267,-82.7872)">
            <path d="M313.776,224.28L313.776,226.872L313.56,227.376L313.272,227.736L312.768,227.88L312.408,227.88" style="fill:rgb(0,132,132);fill-opacity:0;fill-rule:nonzero;stroke:rgb(0,132,132);stroke-width:0.43px;"/>
            <path d="M315.504,227.88L315.504,224.28L316.872,224.28L317.16,224.496L317.376,224.64L317.52,225L317.52,225.504L317.376,225.864L317.16,226.008L316.872,226.152L315.504,226.152" style="fill:rgb(0,132,132);fill-opacity:0;fill-rule:nonzero;stroke:rgb(0,132,132);stroke-width:0.43px;"/>
            <path d="M320.976,227.88L318.888,227.88" style="fill:rgb(0,132,132);fill-opacity:0;fill-rule:nonzero;stroke:rgb(0,132,132);stroke-width:0.43px;"/>
            <path d="M319.968,227.88L319.968,224.28L319.608,224.784L319.248,225.144L318.888,225.288" style="fill:rgb(0,132,132);fill-opacity:0;fill-rule:nonzero;stroke:rgb(0,132,132);stroke-width:0.43px;"/>
            <path d="M299.592,234.432L299.592,230.832L300.96,230.832L301.32,231.048L301.536,231.192L301.68,231.552L301.68,232.056L301.536,232.416L301.32,232.56L300.96,232.704L299.592,232.704" style="fill:rgb(0,132,132);fill-opacity:0;fill-rule:nonzero;stroke:rgb(0,132,132);stroke-width:0.43px;"/>
            <path d="M305.28,234.432L304.056,232.704" style="fill:rgb(0,132,132);fill-opacity:0;fill-rule:nonzero;stroke:rgb(0,132,132);stroke-width:0.43px;"/>
            <path d="M303.192,234.432L303.192,230.832L304.56,230.832L304.92,231.048L305.136,231.192L305.28,231.552L305.28,232.056L305.136,232.416L304.92,232.56L304.56,232.704L303.192,232.704" style="fill:rgb(0,132,132);fill-opacity:0;fill-rule:nonzero;stroke:rgb(0,132,132);stroke-width:0.43px;"/>
            <path d="M308.736,231.048L308.376,230.832L307.872,230.832L307.368,231.048L307.008,231.336L306.792,231.696L306.648,232.416L306.648,232.92L306.792,233.568L307.008,233.928L307.368,234.288L307.872,234.432L308.16,234.432L308.736,234.288L308.88,234.072L308.88,232.92L308.16,232.92" style="fill:rgb(0,132,132);fill-opacity:0;fill-rule:nonzero;stroke:rgb(0,132,132);stroke-width:0.43px;"/>
            <path d="M310.392,234.432L310.392,230.832L311.616,233.424L312.84,230.832L312.84,234.432" style="fill:rgb(0,132,132);fill-opacity:0;fill-rule:nonzero;stroke:rgb(0,132,132);stroke-width:0.43px;"/>
            <path d="M317.088,234.288L317.592,234.432L318.456,234.432L318.816,234.288L318.96,234.072L319.176,233.784L319.176,233.424L318.96,233.064L318.816,232.92L318.456,232.704L317.808,232.56L317.448,232.416L317.304,232.2L317.088,231.84L317.088,231.552L317.304,231.192L317.448,231.048L317.808,230.832L318.672,230.832L319.176,231.048" style="fill:rgb(0,132,132);fill-opacity:0;fill-rule:nonzero;stroke:rgb(0,132,132);stroke-width:0.43px;"/>
            <path d="M321.192,234.432L320.904,234.288L320.688,234.072L320.544,233.784L320.544,232.704L320.688,232.416L320.904,232.2L321.192,232.056L321.768,232.056L322.056,232.2L322.272,232.416L322.416,232.704L322.416,233.784L322.272,234.072L322.056,234.288L321.768,234.432L321.192,234.432" style="fill:rgb(0,132,132);fill-opacity:0;fill-rule:nonzero;stroke:rgb(0,132,132);stroke-width:0.43px;"/>
            <path d="M325.512,232.056L325.512,234.432" style="fill:rgb(0,132,132);fill-opacity:0;fill-rule:nonzero;stroke:rgb(0,132,132);stroke-width:0.43px;"/>
            <path d="M324,232.056L324,233.928L324.144,234.288L324.504,234.432L325.008,234.432L325.368,234.288L325.512,234.072" style="fill:rgb(0,132,132);fill-opacity:0;fill-rule:nonzero;stroke:rgb(0,132,132);stroke-width:0.43px;"/>
            <path d="M327.24,234.432L327.24,232.056" style="fill:rgb(0,132,132);fill-opacity:0;fill-rule:nonzero;stroke:rgb(0,132,132);stroke-width:0.43px;"/>
            <path d="M327.24,232.704L327.384,232.416L327.6,232.2L327.888,232.056L328.248,232.056" style="fill:rgb(0,132,132);fill-opacity:0;fill-rule:nonzero;stroke:rgb(0,132,132);stroke-width:0.43px;"/>
            <path d="M330.984,234.288L330.624,234.432L329.976,234.432L329.616,234.288L329.472,234.072L329.256,233.784L329.256,232.704L329.472,232.416L329.616,232.2L329.976,232.056L330.624,232.056L330.984,232.2" style="fill:rgb(0,132,132);fill-opacity:0;fill-rule:nonzero;stroke:rgb(0,132,132);stroke-width:0.43px;"/>
            <path d="M333.936,234.288L333.576,234.432L332.856,234.432L332.568,234.288L332.352,233.928L332.352,232.56L332.568,232.2L332.856,232.056L333.576,232.056L333.936,232.2L334.08,232.56L334.08,232.92L332.352,233.208" style="fill:rgb(0,132,132);fill-opacity:0;fill-rule:nonzero;stroke:rgb(0,132,132);stroke-width:0.43px;"/>
        </g>
        <g transform="matrix(1.24333,0,0,1.34479,-93.4267,-82.7872)">
            <path d="M291.6,302.4L252,302.4" style="fill:rgb(0,132,0);fill-opacity:0;fill-rule:nonzero;stroke:rgb(0,132,0);stroke-width:0.43px;"/>
            <path d="M252,216L298.8,216" style="fill:rgb(0,132,0);fill-opacity:0;fill-rule:nonzero;stroke:rgb(0,132,0);stroke-width:0.43px;"/>
            <path d="M334.8,216L360,216" style="fill:rgb(0,132,0);fill-opacity:0;fill-rule:nonzero;stroke:rgb(0,132,0);stroke-width:0.43px;"/>
            <path d="M360,216L360,288" style="fill:rgb(0,132,0);fill-opacity:0;fill-rule:nonzero;stroke:rgb(0,132,0);stroke-width:0.43px;"/>
        </g>
        <g transform="matrix(1.24333,0,0,1.34479,-93.4267,-82.7872)">
            <circle cx="360" cy="288" r="1.44" style="fill:rgb(0,132,0);stroke:rgb(0,132,0);stroke-width:0.72px;"/>
        </g>
        <g transform="matrix(1.24333,0,0,1.34479,-93.4267,-82.7872)">
            <path d="M266.4,316.8L266.4,288" style="fill:rgb(0,132,0);fill-opacity:0;fill-rule:nonzero;stroke:rgb(0,132,0);stroke-width:0.43px;"/>
            <path d="M266.4,288L291.6,288" style="fill:rgb(0,132,0);fill-opacity:0;fill-rule:nonzero;stroke:rgb(0,132,0);stroke-width:0.43px;"/>
            <path d="M266.4,288L266.4,266.4" style="fill:rgb(0,132,0);fill-opacity:0;fill-rule:nonzero;stroke:rgb(0,132,0);stroke-width:0.43px;"/>
            <path d="M266.4,266.4L417.6,266.4" style="fill:rgb(0,132,0);fill-opacity:0;fill-rule:nonzero;stroke:rgb(0,132,0);stroke-width:0.43px;"/>
        </g>
        <g transform="matrix(1.24333,0,0,1.34479,-93.4267,-82.7872)">
            <circle cx="266.4" cy="288" r="1.44" style="fill:rgb(0,132,0);stroke:rgb(0,132,0);stroke-width:0.72px;"/>
        </g>
        <g transform="matrix(1.24333,0,0,1.34479,-93.4267,-82.7872)">
            <path d="M327.6,302.4L331.2,302.4" style="fill:rgb(0,132,0);fill-opacity:0;fill-rule:nonzero;stroke:rgb(0,132,0);stroke-width:0.43px;"/>
            <path d="M331.2,302.4L331.2,309.6" style="fill:rgb(0,132,0);fill-opacity:0;fill-rule:nonzero;stroke:rgb(0,132,0);stroke-width:0.43px;"/>
        </g>
        <g transform="matrix(1.24333,0,0,1.34479,-93.4267,-82.7872)">
            <circle cx="331.2" cy="309.6" r="1.44" style="fill:rgb(0,132,0);stroke:rgb(0,132,0);stroke-width:0.72px;"/>
        </g>
        <g transform="matrix(1.24333,0,0,1.34479,-93.4267,-82.7872)">
            <path d="M327.6,295.2L331.2,295.2" style="fill:rgb(0,132,0);fill-opacity:0;fill-rule:nonzero;stroke:rgb(0,132,0);stroke-width:0.43px;"/>
            <path d="M331.2,295.2L331.2,302.4" style="fill:rgb(0,132,0);fill-opacity:0;fill-rule:nonzero;stroke:rgb(0,132,0);stroke-width:0.43px;"/>
        </g>
        <g transform="matrix(1.24333,0,0,1.34479,-93.4267,-82.7872)">
            <circle cx="331.2" cy="302.4" r="1.44" style="fill:rgb(0,132,0);stroke:rgb(0,132,0);stroke-width:0.72px;"/>
        </g>
        <g transform="matrix(1.24333,0,0,1.34479,-93.4267,-82.7872)">
            <path d="M289.872,293.472L293.328,296.928" style="fill:rgb(0,0,132);fill-opacity:0;fill-rule:nonzero;stroke:rgb(0,0,132);stroke-width:0.43px;"/>
            <path d="M293.328,293.472L289.872,296.928" style="fill:rgb(0,0,132);fill-opacity:0;fill-rule:nonzero;stroke:rgb(0,0,132);stroke-width:0.43px;"/>
        </g>
        <g transform="matrix(1.24333,0,0,1.34479,-93.4267,-82.7872)">
            <path d="M475.2,234L475.2,241.2" style="fill:none;stroke:rgb(132,0,0);stroke-width:0.43px;"/>
        </g>
        <g transform="matrix(1.24333,0,0,1.34479,-93.4267,-82.7872)">
            <path d="M471.6,234L478.8,234L475.2,241.2L471.6,234" style="fill:none;stroke:rgb(132,0,0);stroke-width:0.58px;"/>
            <path d="M473.4,243L471.6,243L471.6,241.2L478.8,241.2L478.8,239.4L477,239.4" style="fill:none;stroke:rgb(132,0,0);stroke-width:0.58px;"/>
        </g>
        <g transform="matrix(1.24333,0,0,1.34479,-93.4267,-82.7872)">
            <path d="M475.2,241.2L475.2,248.4" style="fill:rgb(132,0,0);fill-opacity:0;fill-rule:nonzero;stroke:rgb(132,0,0);stroke-width:0.43px;"/>
            <path d="M475.2,234L475.2,226.8" style="fill:rgb(132,0,0);fill-opacity:0;fill-rule:nonzero;stroke:rgb(132,0,0);stroke-width:0.43px;"/>
        </g>
        <g transform="matrix(1.24333,0,0,1.34479,-93.4267,-82.7872)">
            <path d="M481.968,235.656L481.968,232.056L482.832,232.056L483.336,232.272L483.624,232.56L483.84,232.92L483.984,233.64L483.984,234.144L483.84,234.792L483.624,235.152L483.336,235.512L482.832,235.656L481.968,235.656" style="fill:rgb(0,132,132);fill-opacity:0;fill-rule:nonzero;stroke:rgb(0,132,132);stroke-width:0.43px;"/>
            <path d="M487.44,235.656L485.352,235.656" style="fill:rgb(0,132,132);fill-opacity:0;fill-rule:nonzero;stroke:rgb(0,132,132);stroke-width:0.43px;"/>
            <path d="M486.432,235.656L486.432,232.056L486.072,232.56L485.712,232.92L485.352,233.064" style="fill:rgb(0,132,132);fill-opacity:0;fill-rule:nonzero;stroke:rgb(0,132,132);stroke-width:0.43px;"/>
            <path d="M481.68,242.064L482.184,242.208L483.048,242.208L483.408,242.064L483.624,241.848L483.768,241.56L483.768,241.2L483.624,240.84L483.408,240.696L483.048,240.48L482.4,240.336L482.04,240.192L481.896,239.976L481.68,239.616L481.68,239.328L481.896,238.968L482.04,238.824L482.4,238.608L483.264,238.608L483.768,238.824" style="fill:rgb(0,132,132);fill-opacity:0;fill-rule:nonzero;stroke:rgb(0,132,132);stroke-width:0.43px;"/>
            <path d="M484.776,238.608L486.864,238.608" style="fill:rgb(0,132,132);fill-opacity:0;fill-rule:nonzero;stroke:rgb(0,132,132);stroke-width:0.43px;"/>
            <path d="M485.784,242.208L485.784,238.608" style="fill:rgb(0,132,132);fill-opacity:0;fill-rule:nonzero;stroke:rgb(0,132,132);stroke-width:0.43px;"/>
            <path d="M488.016,242.208L488.016,238.608L489.384,238.608L489.744,238.824L489.96,238.968L490.104,239.328L490.104,239.832L489.96,240.192L489.744,240.336L489.384,240.48L488.016,240.48" style="fill:rgb(0,132,132);fill-opacity:0;fill-rule:nonzero;stroke:rgb(0,132,132);stroke-width:0.43px;"/>
            <path d="M491.472,242.064L491.976,242.208L492.84,242.208L493.2,242.064L493.344,241.848L493.56,241.56L493.56,241.2L493.344,240.84L493.2,240.696L492.84,240.48L492.192,240.336L491.832,240.192L491.616,239.976L491.472,239.616L491.472,239.328L491.616,238.968L491.832,238.824L492.192,238.608L492.984,238.608L493.56,238.824" style="fill:rgb(0,132,132);fill-opacity:0;fill-rule:nonzero;stroke:rgb(0,132,132);stroke-width:0.43px;"/>
            <path d="M495.792,238.608L496.08,238.608L496.44,238.824L496.584,238.968L496.8,239.328L496.944,239.976L496.944,240.84L496.8,241.56L496.584,241.848L496.44,242.064L496.08,242.208L495.792,242.208L495.432,242.064L495.216,241.848L495.072,241.56L494.928,240.84L494.928,239.976L495.072,239.328L495.216,238.968L495.432,238.824L495.792,238.608" style="fill:rgb(0,132,132);fill-opacity:0;fill-rule:nonzero;stroke:rgb(0,132,132);stroke-width:0.43px;"/>
            <path d="M500.184,238.608L498.528,238.608L498.312,240.336L498.528,240.192L498.816,239.976L499.68,239.976L500.04,240.192L500.184,240.336L500.4,240.696L500.4,241.56L500.184,241.848L500.04,242.064L499.68,242.208L498.816,242.208L498.528,242.064L498.312,241.848" style="fill:rgb(0,132,132);fill-opacity:0;fill-rule:nonzero;stroke:rgb(0,132,132);stroke-width:0.43px;"/>
            <path d="M501.768,238.968L501.912,238.824L502.272,238.608L503.136,238.608L503.496,238.824L503.64,238.968L503.784,239.328L503.784,239.616L503.64,240.192L501.624,242.208L503.784,242.208" style="fill:rgb(0,132,132);fill-opacity:0;fill-rule:nonzero;stroke:rgb(0,132,132);stroke-width:0.43px;"/>
            <path d="M506.016,238.608L506.376,238.608L506.736,238.824L506.88,238.968L507.096,239.328L507.24,239.976L507.24,240.84L507.096,241.56L506.88,241.848L506.736,242.064L506.376,242.208L506.016,242.208L505.728,242.064L505.512,241.848L505.368,241.56L505.224,240.84L505.224,239.976L505.368,239.328L505.512,238.968L505.728,238.824L506.016,238.608" style="fill:rgb(0,132,132);fill-opacity:0;fill-rule:nonzero;stroke:rgb(0,132,132);stroke-width:0.43px;"/>
            <path d="M508.464,238.608L510.84,238.608L508.464,242.208L510.84,242.208" style="fill:rgb(0,132,132);fill-opacity:0;fill-rule:nonzero;stroke:rgb(0,132,132);stroke-width:0.43px;"/>
        </g>
        <g transform="matrix(1.24333,0,0,1.34479,-93.4267,-82.7872)">
            <path d="M460.8,223.2L460.8,237.6" style="fill:rgb(0,132,0);fill-opacity:0;fill-rule:nonzero;stroke:rgb(0,132,0);stroke-width:0.43px;"/>
            <path d="M475.2,223.2L475.2,226.8" style="fill:rgb(0,132,0);fill-opacity:0;fill-rule:nonzero;stroke:rgb(0,132,0);stroke-width:0.43px;"/>
            <path d="M475.2,259.2L460.8,259.2" style="fill:rgb(0,132,0);fill-opacity:0;fill-rule:nonzero;stroke:rgb(0,132,0);stroke-width:0.43px;"/>
            <path d="M460.8,259.2L460.8,237.6" style="fill:rgb(0,132,0);fill-opacity:0;fill-rule:nonzero;stroke:rgb(0,132,0);stroke-width:0.43px;"/>
        </g>
        <g transform="matrix(1.24333,0,0,1.34479,-93.4267,-82.7872)">
            <circle cx="475.2" cy="259.2" r="1.44" style="fill:rgb(0,132,0);stroke:rgb(0,132,0);stroke-width:0.72px;"/>
        </g>
        <g transform="matrix(1.24333,0,0,1.34479,-93.4267,-82.7872)">
            <circle cx="460.8" cy="237.6" r="1.44" style="fill:rgb(0,132,0);stroke:rgb(0,132,0);stroke-width:0.72px;"/>
        </g>
        <g transform="matrix(1.24333,0,0,1.34479,-93.4267,-82.7872)">
            <path d="M316.8,183.6L504,183.6" style="fill:rgb(0,132,0);fill-opacity:0;fill-rule:nonzero;stroke:rgb(0,132,0);stroke-width:0.43px;"/>
            <path d="M266.4,316.8L291.6,316.8" style="fill:rgb(0,132,0);fill-opacity:0;fill-rule:nonzero;stroke:rgb(0,132,0);stroke-width:0.43px;"/>
            <path d="M259.2,309.6L291.6,309.6" style="fill:rgb(0,132,0);fill-opacity:0;fill-rule:nonzero;stroke:rgb(0,132,0);stroke-width:0.43px;"/>
            <path d="M252,216L252,302.4" style="fill:rgb(0,132,0);fill-opacity:0;fill-rule:nonzero;stroke:rgb(0,132,0);stroke-width:0.43px;"/>
        </g>
        <g transform="matrix(1.24333,0,0,1.34479,-93.4267,-82.7872)">
            <path d="M479.808,301.464L479.808,297.864L480.672,297.864L481.176,298.08L481.536,298.368L481.752,298.728L481.896,299.448L481.896,299.952L481.752,300.6L481.536,300.96L481.176,301.32L480.672,301.464L479.808,301.464" style="fill-opacity:0;fill-rule:nonzero;stroke:black;stroke-width:0.43px;"/>
            <path d="M483.264,300.456L484.992,300.456" style="fill-opacity:0;fill-rule:nonzero;stroke:black;stroke-width:0.43px;"/>
            <path d="M482.904,301.464L484.128,297.864L485.352,301.464" style="fill-opacity:0;fill-rule:nonzero;stroke:black;stroke-width:0.43px;"/>
            <path d="M486,297.864L488.088,297.864" style="fill-opacity:0;fill-rule:nonzero;stroke:black;stroke-width:0.43px;"/>
            <path d="M487.008,301.464L487.008,297.864" style="fill-opacity:0;fill-rule:nonzero;stroke:black;stroke-width:0.43px;"/>
            <path d="M481.896,286.704L481.752,286.92L481.176,287.064L480.888,287.064L480.384,286.92L480.024,286.56L479.808,286.2L479.664,285.552L479.664,285.048L479.808,284.328L480.024,283.968L480.384,283.68L480.888,283.464L481.176,283.464L481.752,283.68L481.896,283.824" style="fill-opacity:0;fill-rule:nonzero;stroke:black;stroke-width:0.43px;"/>
            <path d="M485.136,287.064L483.408,287.064L483.408,283.464" style="fill-opacity:0;fill-rule:nonzero;stroke:black;stroke-width:0.43px;"/>
            <path d="M486.36,287.064L486.36,283.464" style="fill-opacity:0;fill-rule:nonzero;stroke:black;stroke-width:0.43px;"/>
            <path d="M488.376,287.064L486.864,285.048" style="fill-opacity:0;fill-rule:nonzero;stroke:black;stroke-width:0.43px;"/>
            <path d="M488.376,283.464L486.36,285.552" style="fill-opacity:0;fill-rule:nonzero;stroke:black;stroke-width:0.43px;"/>
            <path d="M479.808,258.264L479.808,254.664L481.176,254.664L481.536,254.88L481.752,255.024L481.896,255.384L481.896,255.888L481.752,256.248L481.536,256.392L481.176,256.536L479.808,256.536" style="fill-opacity:0;fill-rule:nonzero;stroke:black;stroke-width:0.43px;"/>
            <path d="M485.496,258.264L484.272,256.536" style="fill-opacity:0;fill-rule:nonzero;stroke:black;stroke-width:0.43px;"/>
            <path d="M483.408,258.264L483.408,254.664L484.776,254.664L485.136,254.88L485.352,255.024L485.496,255.384L485.496,255.888L485.352,256.248L485.136,256.392L484.776,256.536L483.408,256.536" style="fill-opacity:0;fill-rule:nonzero;stroke:black;stroke-width:0.43px;"/>
            <path d="M488.952,254.88L488.592,254.664L488.088,254.664L487.584,254.88L487.224,255.168L487.008,255.528L486.864,256.248L486.864,256.752L487.008,257.4L487.224,257.76L487.584,258.12L488.088,258.264L488.376,258.264L488.952,258.12L489.096,257.904L489.096,256.752L488.376,256.752" style="fill-opacity:0;fill-rule:nonzero;stroke:black;stroke-width:0.43px;"/>
            <path d="M332.208,182.664L332.208,179.064L333.576,179.064L333.936,179.28L334.152,179.424L334.296,179.784L334.296,180.288L334.152,180.648L333.936,180.792L333.576,180.936L332.208,180.936" style="fill-opacity:0;fill-rule:nonzero;stroke:black;stroke-width:0.43px;"/>
            <path d="M337.896,182.664L336.672,180.936" style="fill-opacity:0;fill-rule:nonzero;stroke:black;stroke-width:0.43px;"/>
            <path d="M335.808,182.664L335.808,179.064L337.176,179.064L337.536,179.28L337.752,179.424L337.896,179.784L337.896,180.288L337.752,180.648L337.536,180.792L337.176,180.936L335.808,180.936" style="fill-opacity:0;fill-rule:nonzero;stroke:black;stroke-width:0.43px;"/>
            <path d="M341.352,179.28L340.992,179.064L340.488,179.064L339.984,179.28L339.624,179.568L339.408,179.928L339.264,180.648L339.264,181.152L339.408,181.8L339.624,182.16L339.984,182.52L340.488,182.664L340.776,182.664L341.352,182.52L341.496,182.304L341.496,181.152L340.776,181.152" style="fill-opacity:0;fill-rule:nonzero;stroke:black;stroke-width:0.43px;"/>
            <path d="M343.008,182.664L343.008,179.064L344.232,181.656L345.456,179.064L345.456,182.664" style="fill-opacity:0;fill-rule:nonzero;stroke:black;stroke-width:0.43px;"/>
            <path d="M479.808,195.696L482.616,195.696" style="fill-opacity:0;fill-rule:nonzero;stroke:black;stroke-width:0.43px;"/>
            <path d="M481.176,197.064L481.176,194.328" style="fill-opacity:0;fill-rule:nonzero;stroke:black;stroke-width:0.43px;"/>
            <path d="M486.216,197.064L484.128,197.064" style="fill-opacity:0;fill-rule:nonzero;stroke:black;stroke-width:0.43px;"/>
            <path d="M485.136,197.064L485.136,193.464L484.776,193.968L484.488,194.328L484.128,194.472" style="fill-opacity:0;fill-rule:nonzero;stroke:black;stroke-width:0.43px;"/>
            <path d="M487.584,193.824L487.728,193.68L488.088,193.464L488.952,193.464L489.24,193.68L489.456,193.824L489.6,194.184L489.6,194.472L489.456,195.048L487.368,197.064L489.6,197.064" style="fill-opacity:0;fill-rule:nonzero;stroke:black;stroke-width:0.43px;"/>
            <path d="M490.608,193.464L491.832,197.064L493.056,193.464" style="fill-opacity:0;fill-rule:nonzero;stroke:black;stroke-width:0.43px;"/>
            <path d="M274.608,315.864L274.608,312.264L275.832,314.856L277.056,312.264L277.056,315.864" style="fill-opacity:0;fill-rule:nonzero;stroke:black;stroke-width:0.43px;"/>
            <path d="M278.784,315.864L278.784,312.264" style="fill-opacity:0;fill-rule:nonzero;stroke:black;stroke-width:0.43px;"/>
            <path d="M280.296,315.72L280.8,315.864L281.664,315.864L282.024,315.72L282.168,315.504L282.384,315.216L282.384,314.856L282.168,314.496L282.024,314.352L281.664,314.136L281.016,313.992L280.656,313.848L280.44,313.632L280.296,313.272L280.296,312.984L280.44,312.624L280.656,312.48L281.016,312.264L281.808,312.264L282.384,312.48" style="fill-opacity:0;fill-rule:nonzero;stroke:black;stroke-width:0.43px;"/>
            <path d="M284.616,312.264L285.264,312.264L285.624,312.48L285.984,312.768L286.128,313.488L286.128,314.64L285.984,315.36L285.624,315.72L285.264,315.864L284.616,315.864L284.256,315.72L283.896,315.36L283.752,314.64L283.752,313.488L283.896,312.768L284.256,312.48L284.616,312.264" style="fill-opacity:0;fill-rule:nonzero;stroke:black;stroke-width:0.43px;"/>
            <path d="M274.464,308.52L274.968,308.664L275.832,308.664L276.192,308.52L276.336,308.304L276.552,308.016L276.552,307.656L276.336,307.296L276.192,307.152L275.832,306.936L275.184,306.792L274.824,306.648L274.608,306.432L274.464,306.072L274.464,305.784L274.608,305.424L274.824,305.28L275.184,305.064L275.976,305.064L276.552,305.28" style="fill-opacity:0;fill-rule:nonzero;stroke:black;stroke-width:0.43px;"/>
            <path d="M280.152,308.304L279.936,308.52L279.432,308.664L279.072,308.664L278.568,308.52L278.208,308.16L278.064,307.8L277.92,307.152L277.92,306.648L278.064,305.928L278.208,305.568L278.568,305.28L279.072,305.064L279.432,305.064L279.936,305.28L280.152,305.424" style="fill-opacity:0;fill-rule:nonzero;stroke:black;stroke-width:0.43px;"/>
            <path d="M281.664,308.664L281.664,305.064" style="fill-opacity:0;fill-rule:nonzero;stroke:black;stroke-width:0.43px;"/>
            <path d="M283.752,308.664L282.168,306.648" style="fill-opacity:0;fill-rule:nonzero;stroke:black;stroke-width:0.43px;"/>
            <path d="M283.752,305.064L281.664,307.152" style="fill-opacity:0;fill-rule:nonzero;stroke:black;stroke-width:0.43px;"/>
            <path d="M276.696,301.464L275.472,299.736" style="fill-opacity:0;fill-rule:nonzero;stroke:black;stroke-width:0.43px;"/>
            <path d="M274.608,301.464L274.608,297.864L275.976,297.864L276.336,298.08L276.552,298.224L276.696,298.584L276.696,299.088L276.552,299.448L276.336,299.592L275.976,299.736L274.608,299.736" style="fill-opacity:0;fill-rule:nonzero;stroke:black;stroke-width:0.43px;"/>
            <path d="M278.064,301.32L278.568,301.464L279.432,301.464L279.792,301.32L279.936,301.104L280.152,300.816L280.152,300.456L279.936,300.096L279.792,299.952L279.432,299.736L278.784,299.592L278.424,299.448L278.208,299.232L278.064,298.872L278.064,298.584L278.208,298.224L278.424,298.08L278.784,297.864L279.576,297.864L280.152,298.08" style="fill-opacity:0;fill-rule:nonzero;stroke:black;stroke-width:0.43px;"/>
            <path d="M281.16,297.864L283.176,297.864" style="fill-opacity:0;fill-rule:nonzero;stroke:black;stroke-width:0.43px;"/>
            <path d="M282.168,301.464L282.168,297.864" style="fill-opacity:0;fill-rule:nonzero;stroke:black;stroke-width:0.43px;"/>
            <path d="M274.608,287.064L274.608,283.464L275.832,286.056L277.056,283.464L277.056,287.064" style="fill-opacity:0;fill-rule:nonzero;stroke:black;stroke-width:0.43px;"/>
            <path d="M279.432,283.464L280.152,283.464L280.44,283.68L280.8,283.968L281.016,284.688L281.016,285.84L280.8,286.56L280.44,286.92L280.152,287.064L279.432,287.064L279.072,286.92L278.784,286.56L278.568,285.84L278.568,284.688L278.784,283.968L279.072,283.68L279.432,283.464" style="fill-opacity:0;fill-rule:nonzero;stroke:black;stroke-width:0.43px;"/>
            <path d="M282.384,286.92L282.888,287.064L283.752,287.064L284.04,286.92L284.256,286.704L284.4,286.416L284.4,286.056L284.256,285.696L284.04,285.552L283.752,285.336L283.032,285.192L282.672,285.048L282.528,284.832L282.384,284.472L282.384,284.184L282.528,283.824L282.672,283.68L283.032,283.464L283.896,283.464L284.4,283.68" style="fill-opacity:0;fill-rule:nonzero;stroke:black;stroke-width:0.43px;"/>
            <path d="M285.984,287.064L285.984,283.464" style="fill-opacity:0;fill-rule:nonzero;stroke:black;stroke-width:0.43px;"/>
        </g>
        <g transform="matrix(1.24333,0,0,1.34479,-93.4267,-82.7872)">
            <path d="M316.8,183.6L316.8,208.8" style="fill:rgb(0,132,0);fill-opacity:0;fill-rule:nonzero;stroke:rgb(0,132,0);stroke-width:0.43px;"/>
        </g>
        <g transform="matrix(1.24333,0,0,1.34479,-93.4267,-82.7872)">
            <path d="M485.352,186.48L484.992,186.264L484.488,186.264L483.984,186.48L483.624,186.768L483.408,187.128L483.264,187.848L483.264,188.352L483.408,189L483.624,189.36L483.984,189.72L484.488,189.864L484.776,189.864L485.352,189.72L485.496,189.504L485.496,188.352L484.776,188.352" style="fill-opacity:0;fill-rule:nonzero;stroke:black;stroke-width:0.43px;"/>
            <path d="M487.008,189.864L487.008,186.264L489.096,189.864L489.096,186.264" style="fill-opacity:0;fill-rule:nonzero;stroke:black;stroke-width:0.43px;"/>
            <path d="M490.824,189.864L490.824,186.264L491.688,186.264L492.192,186.48L492.552,186.768L492.696,187.128L492.84,187.848L492.84,188.352L492.696,189L492.552,189.36L492.192,189.72L491.688,189.864L490.824,189.864" style="fill-opacity:0;fill-rule:nonzero;stroke:black;stroke-width:0.43px;"/>
            <path d="M482.904,179.064L484.128,182.664L485.352,179.064" style="fill-opacity:0;fill-rule:nonzero;stroke:black;stroke-width:0.43px;"/>
            <path d="M486.504,182.664L486.504,180.288" style="fill-opacity:0;fill-rule:nonzero;stroke:black;stroke-width:0.43px;"/>
            <path d="M486.504,179.064L486.36,179.28L486.504,179.424L486.72,179.28L486.504,179.064L486.504,179.424" style="fill-opacity:0;fill-rule:nonzero;stroke:black;stroke-width:0.43px;"/>
            <path d="M488.232,180.288L488.232,182.664" style="fill-opacity:0;fill-rule:nonzero;stroke:black;stroke-width:0.43px;"/>
            <path d="M488.232,180.648L488.376,180.432L488.736,180.288L489.24,180.288L489.6,180.432L489.816,180.792L489.816,182.664" style="fill-opacity:0;fill-rule:nonzero;stroke:black;stroke-width:0.43px;"/>
        </g>
        <g transform="matrix(1.24333,0,0,1.34479,-93.4267,-82.7872)">
            <path d="M487.872,271.872L491.328,275.328" style="fill:rgb(0,0,132);fill-opacity:0;fill-rule:nonzero;stroke:rgb(0,0,132);stroke-width:0.43px;"/>
            <path d="M491.328,271.872L487.872,275.328" style="fill:rgb(0,0,132);fill-opacity:0;fill-rule:nonzero;stroke:rgb(0,0,132);stroke-width:0.43px;"/>
        </g>
        <g transform="matrix(1.24333,0,0,1.34479,-93.4267,-82.7872)">
            <rect x="501.552" y="273.24" width="2.448" height="0.72" style="fill:rgb(132,0,0);stroke:rgb(132,0,0);stroke-width:0.43px;"/>
        </g>
        <g transform="matrix(1.24333,0,0,1.34479,-93.4267,-82.7872)">
            <path d="M500.4,273.6L501.552,273.6" style="fill:none;stroke:rgb(132,0,0);stroke-width:0.43px;"/>
            <path d="M500.4,273.6L489.6,273.6" style="fill:rgb(132,0,0);fill-opacity:0;fill-rule:nonzero;stroke:rgb(132,0,0);stroke-width:0.43px;"/>
            <path d="M496.008,272.664L493.92,272.664" style="fill:rgb(132,0,0);fill-opacity:0;fill-rule:nonzero;stroke:rgb(132,0,0);stroke-width:0.43px;"/>
            <path d="M495,272.664L495,269.064L494.64,269.568L494.28,269.928L493.92,270.072" style="fill:rgb(132,0,0);fill-opacity:0;fill-rule:nonzero;stroke:rgb(132,0,0);stroke-width:0.43px;"/>
        </g>
        <g transform="matrix(1.24333,0,0,1.34479,-93.4267,-82.7872)">
            <path d="M508.032,266.328L508.032,268.92L507.888,269.424L507.528,269.784L507.024,269.928L506.664,269.928" style="fill:rgb(0,132,132);fill-opacity:0;fill-rule:nonzero;stroke:rgb(0,132,132);stroke-width:0.43px;"/>
            <path d="M511.632,269.928L509.616,269.928" style="fill:rgb(0,132,132);fill-opacity:0;fill-rule:nonzero;stroke:rgb(0,132,132);stroke-width:0.43px;"/>
            <path d="M510.624,269.928L510.624,266.328L510.264,266.832L509.904,267.192L509.616,267.336" style="fill:rgb(0,132,132);fill-opacity:0;fill-rule:nonzero;stroke:rgb(0,132,132);stroke-width:0.43px;"/>
            <path d="M513.216,268.56L515.952,268.56" style="fill:rgb(0,132,132);fill-opacity:0;fill-rule:nonzero;stroke:rgb(0,132,132);stroke-width:0.43px;"/>
            <path d="M517.464,266.688L517.608,266.544L517.968,266.328L518.832,266.328L519.192,266.544L519.336,266.688L519.552,267.048L519.552,267.336L519.336,267.912L517.32,269.928L519.552,269.928" style="fill:rgb(0,132,132);fill-opacity:0;fill-rule:nonzero;stroke:rgb(0,132,132);stroke-width:0.43px;"/>
            <path d="M507.024,276.48L507.024,272.88L509.112,276.48L509.112,272.88" style="fill:rgb(0,132,132);fill-opacity:0;fill-rule:nonzero;stroke:rgb(0,132,132);stroke-width:0.43px;"/>
            <path d="M512.856,276.12L512.712,276.336L512.208,276.48L511.848,276.48L511.344,276.336L510.984,275.976L510.84,275.616L510.624,274.968L510.624,274.464L510.84,273.744L510.984,273.384L511.344,273.096L511.848,272.88L512.208,272.88L512.712,273.096L512.856,273.24" style="fill:rgb(0,132,132);fill-opacity:0;fill-rule:nonzero;stroke:rgb(0,132,132);stroke-width:0.43px;"/>
        </g>
        <g transform="matrix(1.24333,0,0,1.34479,-93.4267,-82.7872)">
            <path d="M469.872,174.672L473.328,178.128" style="fill:rgb(0,0,132);fill-opacity:0;fill-rule:nonzero;stroke:rgb(0,0,132);stroke-width:0.43px;"/>
            <path d="M473.328,174.672L469.872,178.128" style="fill:rgb(0,0,132);fill-opacity:0;fill-rule:nonzero;stroke:rgb(0,0,132);stroke-width:0.43px;"/>
        </g>
        <g transform="matrix(1.24333,0,0,1.34479,-93.4267,-82.7872)">
            <path d="M504,176.4L471.6,176.4" style="fill:rgb(0,132,0);fill-opacity:0;fill-rule:nonzero;stroke:rgb(0,132,0);stroke-width:0.43px;"/>
        </g>
        <g transform="matrix(1.24333,0,0,1.34479,-93.4267,-82.7872)">
            <path d="M482.904,172.224L483.624,171.72L484.272,172.224" style="fill-opacity:0;fill-rule:nonzero;stroke:black;stroke-width:0.43px;"/>
            <path d="M485.352,175.32L485.856,175.464L486.72,175.464L487.008,175.32L487.224,175.104L487.368,174.816L487.368,174.456L487.224,174.096L487.008,173.952L486.72,173.736L486,173.592L485.64,173.448L485.496,173.232L485.352,172.872L485.352,172.584L485.496,172.224L485.64,172.08L486,171.864L486.864,171.864L487.368,172.08" style="fill-opacity:0;fill-rule:nonzero;stroke:black;stroke-width:0.43px;"/>
            <path d="M488.952,175.464L488.952,171.864" style="fill-opacity:0;fill-rule:nonzero;stroke:black;stroke-width:0.43px;"/>
            <path d="M488.952,173.592L490.968,173.592" style="fill-opacity:0;fill-rule:nonzero;stroke:black;stroke-width:0.43px;"/>
            <path d="M490.968,175.464L490.968,171.864" style="fill-opacity:0;fill-rule:nonzero;stroke:black;stroke-width:0.43px;"/>
            <path d="M492.696,175.464L492.696,171.864L493.56,171.864L494.064,172.08L494.424,172.368L494.568,172.728L494.784,173.448L494.784,173.952L494.568,174.6L494.424,174.96L494.064,175.32L493.56,175.464L492.696,175.464" style="fill-opacity:0;fill-rule:nonzero;stroke:black;stroke-width:0.43px;"/>
            <path d="M496.296,175.464L496.296,171.864L498.384,175.464L498.384,171.864" style="fill-opacity:0;fill-rule:nonzero;stroke:black;stroke-width:0.43px;"/>
        </g>
        <g transform="matrix(1.24333,0,0,1.34479,-93.4267,-82.7872)">
            <path d="M327.6,288L360,288" style="fill:rgb(0,132,0);fill-opacity:0;fill-rule:nonzero;stroke:rgb(0,132,0);stroke-width:0.43px;"/>
            <path d="M331.2,316.8L385.2,316.8" style="fill:rgb(0,132,0);fill-opacity:0;fill-rule:nonzero;stroke:rgb(0,132,0);stroke-width:0.43px;"/>
        </g>
        <g transform="matrix(1.24333,0,0,1.34479,-93.4267,-82.7872)">
            <path d="M341.136,283.464L339.408,283.464L339.264,285.192L339.408,285.048L339.768,284.832L340.632,284.832L340.992,285.048L341.136,285.192L341.352,285.552L341.352,286.416L341.136,286.704L340.992,286.92L340.632,287.064L339.768,287.064L339.408,286.92L339.264,286.704" style="fill-opacity:0;fill-rule:nonzero;stroke:black;stroke-width:0.43px;"/>
            <path d="M342.36,283.464L343.584,287.064L344.736,283.464" style="fill-opacity:0;fill-rule:nonzero;stroke:black;stroke-width:0.43px;"/>
            <path d="M341.352,312.48L340.992,312.264L340.488,312.264L339.984,312.48L339.624,312.768L339.408,313.128L339.264,313.848L339.264,314.352L339.408,315L339.624,315.36L339.984,315.72L340.488,315.864L340.776,315.864L341.352,315.72L341.496,315.504L341.496,314.352L340.776,314.352" style="fill-opacity:0;fill-rule:nonzero;stroke:black;stroke-width:0.43px;"/>
            <path d="M343.008,315.864L343.008,312.264L345.096,315.864L345.096,312.264" style="fill-opacity:0;fill-rule:nonzero;stroke:black;stroke-width:0.43px;"/>
            <path d="M346.824,315.864L346.824,312.264L347.688,312.264L348.192,312.48L348.552,312.768L348.696,313.128L348.84,313.848L348.84,314.352L348.696,315L348.552,315.36L348.192,315.72L347.688,315.864L346.824,315.864" style="fill-opacity:0;fill-rule:nonzero;stroke:black;stroke-width:0.43px;"/>
            <path d="M479.808,330.264L479.808,326.664L481.176,326.664L481.536,326.88L481.752,327.024L481.896,327.384L481.896,327.888L481.752,328.248L481.536,328.392L481.176,328.536L479.808,328.536" style="fill-opacity:0;fill-rule:nonzero;stroke:black;stroke-width:0.43px;"/>
            <path d="M483.12,326.664L483.984,330.264L484.632,327.672L485.352,330.264L486.216,326.664" style="fill-opacity:0;fill-rule:nonzero;stroke:black;stroke-width:0.43px;"/>
            <path d="M489.6,330.264L488.376,328.536" style="fill-opacity:0;fill-rule:nonzero;stroke:black;stroke-width:0.43px;"/>
            <path d="M487.584,330.264L487.584,326.664L488.952,326.664L489.24,326.88L489.456,327.024L489.6,327.384L489.6,327.888L489.456,328.248L489.24,328.392L488.952,328.536L487.584,328.536" style="fill-opacity:0;fill-rule:nonzero;stroke:black;stroke-width:0.43px;"/>
        </g>
        <g transform="matrix(1.24333,0,0,1.34479,-93.4267,-82.7872)">
            <rect x="501.552" y="330.84" width="2.448" height="0.72" style="fill:rgb(132,0,0);stroke:rgb(132,0,0);stroke-width:0.43px;"/>
        </g>
        <g transform="matrix(1.24333,0,0,1.34479,-93.4267,-82.7872)">
            <path d="M500.4,331.2L501.552,331.2" style="fill:none;stroke:rgb(132,0,0);stroke-width:0.43px;"/>
            <path d="M500.4,331.2L489.6,331.2" style="fill:rgb(132,0,0);fill-opacity:0;fill-rule:nonzero;stroke:rgb(132,0,0);stroke-width:0.43px;"/>
            <path d="M496.008,330.264L493.92,330.264" style="fill:rgb(132,0,0);fill-opacity:0;fill-rule:nonzero;stroke:rgb(132,0,0);stroke-width:0.43px;"/>
            <path d="M495,330.264L495,326.664L494.64,327.168L494.28,327.528L493.92,327.672" style="fill:rgb(132,0,0);fill-opacity:0;fill-rule:nonzero;stroke:rgb(132,0,0);stroke-width:0.43px;"/>
        </g>
        <g transform="matrix(1.24333,0,0,1.34479,-93.4267,-82.7872)">
            <path d="M508.032,323.928L508.032,326.52L507.888,327.024L507.528,327.384L507.024,327.528L506.664,327.528" style="fill:rgb(0,132,132);fill-opacity:0;fill-rule:nonzero;stroke:rgb(0,132,132);stroke-width:0.43px;"/>
            <path d="M511.632,327.528L509.616,327.528" style="fill:rgb(0,132,132);fill-opacity:0;fill-rule:nonzero;stroke:rgb(0,132,132);stroke-width:0.43px;"/>
            <path d="M510.624,327.528L510.624,323.928L510.264,324.432L509.904,324.792L509.616,324.936" style="fill:rgb(0,132,132);fill-opacity:0;fill-rule:nonzero;stroke:rgb(0,132,132);stroke-width:0.43px;"/>
            <path d="M513.216,326.16L515.952,326.16" style="fill:rgb(0,132,132);fill-opacity:0;fill-rule:nonzero;stroke:rgb(0,132,132);stroke-width:0.43px;"/>
            <path d="M519.192,323.928L518.472,323.928L518.184,324.144L517.968,324.288L517.608,324.792L517.464,325.512L517.464,326.88L517.608,327.168L517.824,327.384L518.184,327.528L518.832,327.528L519.192,327.384L519.336,327.168L519.552,326.88L519.552,326.016L519.336,325.656L519.192,325.512L518.832,325.296L518.184,325.296L517.824,325.512L517.608,325.656L517.464,326.016" style="fill:rgb(0,132,132);fill-opacity:0;fill-rule:nonzero;stroke:rgb(0,132,132);stroke-width:0.43px;"/>
            <path d="M507.024,334.08L507.024,330.48L508.392,330.48L508.752,330.696L508.896,330.84L509.04,331.2L509.04,331.704L508.896,332.064L508.752,332.208L508.392,332.352L507.024,332.352" style="fill:rgb(0,132,132);fill-opacity:0;fill-rule:nonzero;stroke:rgb(0,132,132);stroke-width:0.43px;"/>
            <path d="M510.264,330.48L511.128,334.08L511.848,331.488L512.496,334.08L513.36,330.48" style="fill:rgb(0,132,132);fill-opacity:0;fill-rule:nonzero;stroke:rgb(0,132,132);stroke-width:0.43px;"/>
            <path d="M516.816,334.08L515.592,332.352" style="fill:rgb(0,132,132);fill-opacity:0;fill-rule:nonzero;stroke:rgb(0,132,132);stroke-width:0.43px;"/>
            <path d="M514.728,334.08L514.728,330.48L516.096,330.48L516.456,330.696L516.6,330.84L516.816,331.2L516.816,331.704L516.6,332.064L516.456,332.208L516.096,332.352L514.728,332.352" style="fill:rgb(0,132,132);fill-opacity:0;fill-rule:nonzero;stroke:rgb(0,132,132);stroke-width:0.43px;"/>
        </g>
        <g transform="matrix(1.24333,0,0,1.34479,-93.4267,-82.7872)">
            <path d="M481.752,312.48L481.392,312.264L480.888,312.264L480.384,312.48L480.024,312.768L479.808,313.128L479.664,313.848L479.664,314.352L479.808,315L480.024,315.36L480.384,315.72L480.888,315.864L481.176,315.864L481.752,315.72L481.896,315.504L481.896,314.352L481.176,314.352" style="fill-opacity:0;fill-rule:nonzero;stroke:black;stroke-width:0.43px;"/>
            <path d="M483.408,315.864L483.408,312.264L485.496,315.864L485.496,312.264" style="fill-opacity:0;fill-rule:nonzero;stroke:black;stroke-width:0.43px;"/>
            <path d="M487.224,315.864L487.224,312.264L488.088,312.264L488.592,312.48L488.952,312.768L489.096,313.128L489.24,313.848L489.24,314.352L489.096,315L488.952,315.36L488.592,315.72L488.088,315.864L487.224,315.864" style="fill-opacity:0;fill-rule:nonzero;stroke:black;stroke-width:0.43px;"/>
        </g>
        <g transform="matrix(1.24333,0,0,1.34479,-93.4267,-82.7872)">
            <path d="M489.6,316.8L385.2,316.8" style="fill:rgb(0,132,0);fill-opacity:0;fill-rule:nonzero;stroke:rgb(0,132,0);stroke-width:0.43px;"/>
        </g>
        <g transform="matrix(1.24333,0,0,1.34479,-93.4267,-82.7872)">
            <circle cx="385.2" cy="316.8" r="1.44" style="fill:rgb(0,132,0);stroke:rgb(0,132,0);stroke-width:0.72px;"/>
        </g>
        <g transform="matrix(1.24333,0,0,1.34479,-93.4267,-82.7872)">
            <path d="M298.8,216L298.8,208.8" style="fill:rgb(0,132,0);fill-opacity:0;fill-rule:nonzero;stroke:rgb(0,132,0);stroke-width:0.43px;"/>
            <path d="M298.8,208.8L316.8,208.8" style="fill:rgb(0,132,0);fill-opacity:0;fill-rule:nonzero;stroke:rgb(0,132,0);stroke-width:0.43px;"/>
        </g>
        <g transform="matrix(1.24333,0,0,1.34479,-93.4267,-82.7872)">
            <circle cx="298.8" cy="216" r="1.44" style="fill:rgb(0,132,0);stroke:rgb(0,132,0);stroke-width:0.72px;"/>
        </g>
        <g transform="matrix(1.24333,0,0,1.34479,-93.4267,-82.7872)">
            <circle cx="316.8" cy="208.8" r="1.44" style="fill:rgb(0,132,0);stroke:rgb(0,132,0);stroke-width:0.72px;"/>
        </g>
    </g>
</svg>
